<?xml version="1.0" encoding="UTF-8" standalone="no"?>
<svg
        enable-background="new 0 0 778.2 259.6"
        version="1.1"
        viewBox="0 0 778.2 259.6"
        xml:space="preserve"
        data-darkreader-mode="static"
        style="cursor: default;"
        id="svg132"
        xmlns="http://www.w3.org/2000/svg">
  <defs id="defs132"/>
    <style type="text/css" id="style1">
    .st0{fill:#424242;}
    .st1{fill:#0288D1;}
    .st2{fill:#424242;}
    .st3{fill:#EEEEEE;}
  </style>
    <path
            class="st0"
            d="m99.7 104.6h37.7c2.9 0 5.2 2.4 5.2 5.3v37.1c0 2.9-2.3 5.3-5.2 5.3h-37.7c-2.8 0-5.1-2.4-5.1-5.3v-37.1c-0.1-2.9 2.3-5.3 5.1-5.3z"
            id="path1"/>
    <path
            class="st0"
            d="m112.9 0h37.5c2.9 0 5.3 2.3 5.3 5.3v37.7c0 2.9-2.4 5.3-5.3 5.3h-37.5c-2.9 0-5.3-2.4-5.3-5.3v-37.7c0-3 2.4-5.3 5.3-5.3z"
            id="path2"/>
    <path
            class="st0"
            d="m153.8 104.6h37.7c2.8 0 5.1 2.4 5.1 5.3v37.1c0 2.9-2.3 5.3-5.1 5.3h-37.7c-2.9 0-5.2-2.4-5.2-5.3v-37.1c0-2.9 2.3-5.3 5.2-5.3z"
            id="path3"/>
    <path
            class="st0"
            d="m167 0h37.5c2.9 0 5.3 2.3 5.3 5.3v37.7c0 2.9-2.4 5.3-5.3 5.3h-37.5c-2.9 0-5.3-2.4-5.3-5.3v-37.7c0-3 2.4-5.3 5.3-5.3z"
            id="path4"/>
    <path
            class="st0"
            d="m207.9 104.6h37.6c2.9 0 5.2 2.4 5.2 5.3v37.1c0 2.9-2.3 5.3-5.2 5.3h-37.6c-2.9 0-5.2-2.4-5.2-5.3v-37.1c0-2.9 2.4-5.3 5.2-5.3z"
            id="path5"/>
    <path
            class="st0"
            d="m221.2 0h37.5c2.9 0 5.3 2.3 5.3 5.3v37.7c0 2.9-2.4 5.3-5.3 5.3h-37.5c-2.9 0-5.3-2.4-5.3-5.3v-37.7c0-3 2.4-5.3 5.3-5.3z"
            id="path6"/>
    <path
            class="st0"
            d="m262.1 104.6h37.6c2.9 0 5.2 2.4 5.2 5.3v37.1c0 2.9-2.3 5.3-5.2 5.3h-37.6c-2.9 0-5.2-2.4-5.2-5.3v-37.1c0-2.9 2.3-5.3 5.2-5.3z"
            id="path7"/>
    <path
            class="st0"
            d="m275.3 0h37.5c2.9 0 5.3 2.3 5.3 5.3v37.7c0 2.9-2.4 5.3-5.3 5.3h-37.5c-2.9 0-5.3-2.4-5.3-5.3v-37.7c0-3 2.4-5.3 5.3-5.3z"
            id="path8"/>
    <path
            class="st0"
            d="m316.1 104.6h37.7c2.9 0 5.2 2.4 5.2 5.3v37.1c0 2.9-2.3 5.3-5.2 5.3h-37.7c-2.8 0-5.1-2.4-5.1-5.3v-37.1c0-2.9 2.3-5.3 5.1-5.3z"
            id="path9"/>
    <path
            class="st0"
            d="m329.4 0h37.6c2.9 0 5.3 2.3 5.3 5.3v37.7c0 2.9-2.4 5.3-5.3 5.3h-37.5c-2.9 0-5.3-2.4-5.3-5.3v-37.7c-0.1-3 2.4-5.3 5.2-5.3z"
            id="path10"/>
    <path
            class="st0"
            d="m370.3 104.6h37.7c2.9 0 5.2 2.4 5.2 5.3v37.1c0 2.9-2.3 5.3-5.2 5.3h-37.7c-2.9 0-5.2-2.4-5.2-5.3v-37.1c0-2.9 2.3-5.3 5.2-5.3z"
            id="path11"/>
    <path
            class="st0"
            d="m383.6 0h37.5c2.9 0 5.3 2.3 5.3 5.3v37.7c0 2.9-2.4 5.3-5.3 5.3h-37.5c-2.9 0-5.3-2.4-5.3-5.3v-37.7c0-3 2.4-5.3 5.3-5.3z"
            id="path12"/>
    <path
            class="st0"
            d="m424.4 104.6h37.7c2.8 0 5.1 2.4 5.1 5.3v37.1c0 2.9-2.3 5.3-5.1 5.3h-37.7c-2.9 0-5.2-2.4-5.2-5.3v-37.1c0-2.9 2.3-5.3 5.2-5.3z"
            id="path13"/>
    <path
            class="st0"
            d="m437.7 0h37.5c2.9 0 5.3 2.3 5.3 5.3v37.7c0 2.9-2.4 5.3-5.3 5.3h-37.5c-2.9 0-5.3-2.4-5.3-5.3v-37.7c0-3 2.4-5.3 5.3-5.3z"
            id="path14"/>
    <path
            class="st0"
            d="m478.5 104.6h37.6c2.9 0 5.2 2.4 5.2 5.3v37.1c0 2.9-2.3 5.3-5.2 5.3h-37.6c-2.9 0-5.2-2.4-5.2-5.3v-37.1c0-2.9 2.4-5.3 5.2-5.3z"
            id="path15"/>
    <path
            class="st0"
            d="m491.8 0h37.5c2.9 0 5.3 2.3 5.3 5.3v37.7c0 2.9-2.4 5.3-5.3 5.3h-37.5c-2.9 0-5.3-2.4-5.3-5.3v-37.7c0-3 2.5-5.3 5.3-5.3z"
            id="path16"/>
    <path
            class="st0"
            d="m532.7 104.6h37.6c2.9 0 5.2 2.4 5.2 5.3v37.1c0 2.9-2.3 5.3-5.2 5.3h-37.6c-2.9 0-5.2-2.4-5.2-5.3v-37.1c0-2.9 2.3-5.3 5.2-5.3z"
            id="path17"/>
    <path
            class="st0"
            d="m546 0h37.5c2.9 0 5.3 2.3 5.3 5.3v37.7c0 2.9-2.4 5.3-5.3 5.3h-37.5c-2.9 0-5.3-2.4-5.3-5.3v-37.7c0-3 2.4-5.3 5.3-5.3z"
            id="path18"/>
    <path
            class="st0"
            d="m586.7 104.6h37.7c2.9 0 5.2 2.4 5.2 5.3v37.1c0 2.9-2.3 5.3-5.2 5.3h-37.7c-2.9 0-5.1-2.4-5.1-5.3v-37.1c0-2.9 2.3-5.3 5.1-5.3z"
            id="path19"/>
    <path
            class="st0"
            d="m600.1 0h37.5c2.9 0 5.3 2.3 5.3 5.3v37.7c0 2.9-2.4 5.3-5.3 5.3h-37.5c-2.9 0-5.3-2.4-5.3-5.3v-37.7c0-3 2.4-5.3 5.3-5.3z"
            id="path20"/>
    <path
            class="st0"
            d="m640.9 104.6h37.7c2.8 0 5.1 2.4 5.1 5.3v37.1c0 2.9-2.3 5.3-5.1 5.3h-37.7c-2.9 0-5.2-2.4-5.2-5.3v-37.1c0-2.9 2.3-5.3 5.2-5.3z"
            id="path21"/>
    <path
            class="st0"
            d="m654.2 0h37.5c2.9 0 5.3 2.3 5.3 5.3v37.7c0 2.9-2.4 5.3-5.3 5.3h-37.5c-2.9 0-5.3-2.4-5.3-5.3v-37.7c0.1-3 2.5-5.3 5.3-5.3z"
            id="path22"/>
    <path
            class="st0"
            d="m680.9 51.5h37.5c2.9 0 5.3 2.4 5.3 5.4v37.9c0 2.9-2.4 5.3-5.3 5.3h-37.5c-2.9 0-5.3-2.3-5.3-5.3v-37.9c0-3 2.4-5.4 5.3-5.4z"
            id="path23"/>
    <path
            class="st0"
            d="m735 51.5h37.5c2.9 0 5.2 2.4 5.2 5.4v37.9c0 2.9-2.3 5.3-5.2 5.3h-37.5c-2.9 0-5.3-2.3-5.3-5.3v-37.9c0-3 2.4-5.4 5.3-5.4z"
            id="path24"/>
    <path
            class="st0"
            d="m694.7 104.6h78c2.9 0 5.3 2.4 5.3 5.3v37.1c0 2.9-2.3 5.3-5.3 5.3h-78c-2.9 0-5.3-2.4-5.3-5.3v-37.1c0-2.9 2.4-5.3 5.3-5.3z"
            id="path25"/>
    <path
            class="st0"
            d="m707.5 0.2h65.2c2.9 0 5.2 2.3 5.2 5.2v37.4c0 2.9-2.3 5.3-5.2 5.3h-65.2c-2.9 0-5.2-2.4-5.2-5.3v-37.4c0-2.9 2.4-5.2 5.2-5.2z"
            id="path26"/>
    <path
            class="st0"
            d="m5.5 51.5h65.3c2.9 0 5.2 2.4 5.2 5.4v37.9c0 2.9-2.3 5.3-5.2 5.3h-65.3c-2.9 0-5.2-2.3-5.2-5.3v-37.9c0-3 2.3-5.4 5.2-5.4z"
            id="path27"/>
    <path
            class="st1"
            d="M5.2,0h37.5c3,0,5.3,2.3,5.3,5.3V43c0,2.9-2.3,5.3-5.3,5.3H5.2C2.3,48.2,0,45.8,0,43V5.3C0,2.3,2.3,0,5.2,0z"
            id="path28"/>
    <path
            class="st0"
            d="m59.3 0h37.5c2.9 0 5.3 2.3 5.3 5.3v37.7c0 2.9-2.3 5.3-5.3 5.3h-37.5c-2.9 0-5.2-2.4-5.2-5.3v-37.7c0-3 2.4-5.3 5.2-5.3z"
            id="path29"/>
    <path
            class="st0"
            d="m5.4 104.6h78.1c2.9 0 5.3 2.4 5.3 5.3v37.1c0 2.9-2.3 5.3-5.3 5.3h-78.1c-2.9 0-5.3-2.4-5.3-5.3v-37.1c0-2.9 2.4-5.3 5.3-5.3z"
            id="path30"/>
    <path
            class="st0"
            d="m126.5 157.1h37.6c2.9 0 5.2 2.3 5.2 5.3v37.5c0 2.9-2.3 5.3-5.2 5.3h-37.6c-2.9 0-5.2-2.3-5.2-5.3v-37.5c0-2.9 2.4-5.3 5.2-5.3z"
            id="path31"/>
    <path
            class="st0"
            d="m180.7 157.1h37.5c2.9 0 5.3 2.3 5.3 5.3v37.5c0 2.9-2.3 5.3-5.3 5.3h-37.5c-2.9 0-5.2-2.3-5.2-5.3v-37.5c0-2.9 2.3-5.3 5.2-5.3z"
            id="path32"/>
    <path
            class="st0"
            d="m234.8 157.1h37.5c2.9 0 5.3 2.3 5.3 5.3v37.5c0 2.9-2.4 5.3-5.3 5.3h-37.5c-2.9 0-5.2-2.3-5.2-5.3v-37.5c0-2.9 2.3-5.3 5.2-5.3z"
            id="path33"/>
    <path
            class="st0"
            d="m289 157.1h37.5c2.9 0 5.2 2.3 5.2 5.3v37.5c0 2.9-2.3 5.3-5.2 5.3h-37.5c-2.9 0-5.3-2.3-5.3-5.3v-37.5c0-2.9 2.4-5.3 5.3-5.3z"
            id="path34"/>
    <path
            class="st0"
            d="m343 157.1h37.6c2.9 0 5.2 2.3 5.2 5.3v37.5c0 2.9-2.3 5.3-5.2 5.3h-37.6c-2.9 0-5.2-2.3-5.2-5.3v-37.5c0-2.9 2.3-5.3 5.2-5.3z"
            id="path35"/>
    <path
            class="st0"
            d="m397.2 157.1h37.6c2.9 0 5.2 2.3 5.2 5.3v37.5c0 2.9-2.3 5.3-5.2 5.3h-37.6c-2.9 0-5.2-2.3-5.2-5.3v-37.5c-0.1-2.9 2.3-5.3 5.2-5.3z"
            id="path36"/>
    <path
            class="st0"
            d="m451.3 157.1h37.5c2.9 0 5.3 2.3 5.3 5.3v37.5c0 2.9-2.3 5.3-5.3 5.3h-37.5c-2.9 0-5.2-2.3-5.2-5.3v-37.5c0-2.9 2.3-5.3 5.2-5.3z"
            id="path37"/>
    <path
            class="st0"
            d="m505.4 157.1h37.6c2.9 0 5.2 2.3 5.2 5.3v37.5c0 2.9-2.3 5.3-5.2 5.3h-37.5c-2.9 0-5.3-2.3-5.3-5.3v-37.5c-0.1-2.9 2.4-5.3 5.2-5.3z"
            id="path38"/>
    <path
            class="st0"
            d="m559.6 157.1h37.5c2.9 0 5.2 2.3 5.2 5.3v37.5c0 2.9-2.3 5.3-5.2 5.3h-37.5c-2.9 0-5.3-2.3-5.3-5.3v-37.5c0-2.9 2.3-5.3 5.3-5.3z"
            id="path39"/>
    <path
            class="st0"
            d="m613.6 157.1h37.6c2.9 0 5.2 2.3 5.2 5.3v37.5c0 2.9-2.3 5.3-5.2 5.3h-37.6c-2.9 0-5.2-2.3-5.2-5.3v-37.5c0-2.9 2.4-5.3 5.2-5.3z"
            id="path40"/>
    <path
            class="st0"
            d="m667.8 157.1h104.9c2.9 0 5.3 2.3 5.3 5.3v37.5c0 2.9-2.3 5.3-5.3 5.3h-104.9c-2.9 0-5.3-2.3-5.3-5.3v-37.5c0-2.9 2.4-5.3 5.3-5.3z"
            id="path41"/>
    <path
            class="st0"
            d="m5.7 157.1h105c2.9 0 5.3 2.3 5.3 5.3v37.5c0 2.9-2.4 5.3-5.3 5.3h-105c-2.9 0-5.3-2.3-5.3-5.3v-37.5c0.1-2.9 2.5-5.3 5.3-5.3z"
            id="path42"/>
    <path
            class="st0"
            d="m5.6 209.8h37.4c2.9 0 5.3 2.4 5.3 5.4v37.9c0 2.9-2.3 5.4-5.3 5.4h-37.4c-2.9 0-5.3-2.4-5.3-5.4v-37.9c0-3 2.3-5.4 5.3-5.4z"
            id="path43"/>
    <path
            class="st0"
            d="m167.9 209.8h51.2c2.9 0 5.3 2.4 5.3 5.4v37.9c0 2.9-2.3 5.4-5.3 5.4h-51.2c-2.9 0-5.3-2.4-5.3-5.4v-37.9c0-3 2.5-5.4 5.3-5.4z"
            id="path44"/>
    <path
            class="st0"
            d="m506.2 210.2h51.3c2.9 0 5.2 2.4 5.2 5.3v37.3c0 2.9-2.3 5.3-5.2 5.3h-51.3c-2.9 0-5.3-2.4-5.3-5.3v-37.3c0-2.9 2.4-5.3 5.3-5.3z"
            id="path45"/>
    <path
            class="st0"
            d="m235 209.8h255.2c2.9 0 5.3 2.4 5.3 5.4v37.9c0 2.9-2.3 5.4-5.3 5.4h-255.2c-2.9 0-5.3-2.4-5.3-5.4v-37.9c0.1-3 2.5-5.4 5.3-5.4z"
            id="path46"/>
    <path
            class="st0"
            d="m59.7 209.8h37.5c2.9 0 5.3 2.4 5.3 5.4v37.9c0 2.9-2.4 5.4-5.3 5.4h-37.5c-2.9 0-5.3-2.4-5.3-5.4v-37.9c0-3 2.4-5.4 5.3-5.4z"
            id="path47"/>
    <path
            class="st1"
            d="m113.8 209.8h37.5c2.9 0 5.3 2.4 5.3 5.4v37.9c0 2.9-2.4 5.4-5.3 5.4h-37.5c-2.9 0-5.3-2.4-5.3-5.4v-37.9c0-3 2.4-5.4 5.3-5.4z"
            id="path48"
            style="fill:#424242;fill-opacity:1"/>
    <path
            class="st0"
            d="m573.5 210.1h37.6c2.9 0 5.2 2.4 5.2 5.3v37.5c0 2.9-2.3 5.3-5.2 5.3h-37.6c-2.9 0-5.2-2.3-5.2-5.3v-37.5c-0.1-2.9 2.3-5.3 5.2-5.3z"
            id="path49"/>
    <path
            class="st0"
            d="m627.6 210.1h37.6c2.9 0 5.2 2.4 5.2 5.3v37.5c0 2.9-2.3 5.3-5.2 5.3h-37.6c-2.9 0-5.2-2.3-5.2-5.3v-37.5c0-2.9 2.3-5.3 5.2-5.3z"
            id="path50"/>
    <path
            class="st0"
            d="m735 210.1h37.5c2.9 0 5.2 2.4 5.2 5.3v37.5c0 2.9-2.3 5.3-5.2 5.3h-37.5c-2.9 0-5.3-2.3-5.3-5.3v-37.5c0-2.9 2.3-5.3 5.3-5.3z"
            id="path51"/>
    <path
            class="st0"
            d="m85.8 51.4h37.5c2.9 0 5.3 2.4 5.3 5.4v38.1c0 2.9-2.3 5.3-5.3 5.3h-37.5c-2.9 0-5.2-2.3-5.2-5.3v-38.1c0-3 2.4-5.4 5.2-5.4z"
            id="path52"/>
    <path
            class="st0"
            d="m140.1 51.4h37.5c2.9 0 5.3 2.4 5.3 5.4v38.1c0 2.9-2.4 5.3-5.3 5.3h-37.5c-2.9 0-5.3-2.3-5.3-5.3v-38.1c0-3 2.4-5.4 5.3-5.4z"
            id="path53"/>
    <path
            class="st0"
            d="m194.3 51.4h37.5c2.9 0 5.3 2.4 5.3 5.4v38.1c0 2.9-2.3 5.3-5.3 5.3h-37.5c-2.9 0-5.3-2.3-5.3-5.3v-38.1c0-3 2.3-5.4 5.3-5.4z"
            id="path54"/>
    <path
            class="st0"
            d="m248.4 51.4h37.5c2.9 0 5.3 2.4 5.3 5.4v38.1c0 2.9-2.4 5.3-5.3 5.3h-37.5c-2.9 0-5.3-2.3-5.3-5.3v-38.1c0-3 2.4-5.4 5.3-5.4z"
            id="path55"/>
    <path
            class="st0"
            d="m302.6 51.4h37.5c2.9 0 5.3 2.4 5.3 5.4v38.1c0 2.9-2.3 5.3-5.3 5.3h-37.5c-2.9 0-5.3-2.3-5.3-5.3v-38.1c0-3 2.4-5.4 5.3-5.4z"
            id="path56"/>
    <path
            class="st0"
            d="m356.8 51.4h37.5c2.9 0 5.3 2.4 5.3 5.4v38.1c0 2.9-2.4 5.3-5.3 5.3h-37.5c-2.9 0-5.3-2.3-5.3-5.3v-38.1c0-3 2.4-5.4 5.3-5.4z"
            id="path57"/>
    <path
            class="st0"
            d="m411 51.4h37.5c2.9 0 5.3 2.4 5.3 5.4v38.1c0 2.9-2.3 5.3-5.3 5.3h-37.5c-2.9 0-5.3-2.3-5.3-5.3v-38.1c0-3 2.3-5.4 5.3-5.4z"
            id="path58"/>
    <path
            class="st0"
            d="m465.1 51.4h37.5c2.9 0 5.3 2.4 5.3 5.4v38.1c0 2.9-2.4 5.3-5.3 5.3h-37.5c-2.9 0-5.3-2.3-5.3-5.3v-38.1c0-3 2.4-5.4 5.3-5.4z"
            id="path59"/>
    <path
            class="st0"
            d="m519.3 51.4h37.5c2.9 0 5.3 2.4 5.3 5.4v38.1c0 2.9-2.4 5.3-5.3 5.3h-37.5c-2.9 0-5.3-2.3-5.3-5.3v-38.1c0-3 2.4-5.4 5.3-5.4z"
            id="path60"/>
    <path
            class="st0"
            d="m573.5 51.4h37.5c2.9 0 5.3 2.4 5.3 5.4v38.1c0 2.9-2.3 5.3-5.3 5.3h-37.5c-2.9 0-5.3-2.3-5.3-5.3v-38.1c0-3 2.4-5.4 5.3-5.4z"
            id="path61"/>
    <path
            class="st0"
            d="m627.7 51.4h37.5c2.9 0 5.3 2.4 5.3 5.4v38.1c0 2.9-2.4 5.3-5.3 5.3h-37.5c-2.9 0-5.3-2.3-5.3-5.3v-38.1c0-3 2.3-5.4 5.3-5.4z"
            id="path62"/>
    <path
            class="st0"
            d="m723.9 233.2v-17.8c0-2.9-2.3-5.3-5.2-5.3h-37.6c-2.9 0-5.2 2.4-5.2 5.3v17.8h48z"
            id="path63"/>
    <path
            class="st0"
            d="m675.9 235.2v17.8c0 3 2.3 5.3 5.2 5.3h37.6c2.9 0 5.2-2.4 5.2-5.3v-17.8h-48z"
            id="path64"/>
    <path
            class="st2"
            d="m439.1 139.9h9.1c0.5 0 0.8 0.4 0.8 0.8v1.3c0 0.4-0.3 0.8-0.8 0.8h-9.1c-0.4 0-0.8-0.4-0.8-0.8v-1.3c0.1-0.4 0.5-0.8 0.8-0.8z"
            id="path65"/>
    <path
            class="st2"
            d="m448.9 141.9v-0.7h-10.6v0.7c0 0.4 0.4 0.8 0.8 0.8h9.1c0.4 0 0.7-0.4 0.7-0.8z"
            id="path66"/>
    <path
            class="st2"
            d="m448.2 139.9h-9.1c-0.4 0-0.8 0.4-0.8 0.8v0.6h10.6v-0.6c0-0.4-0.3-0.8-0.7-0.8z"
            id="path67"/>
    <path
            class="st2"
            d="m276 139.9h9.1c0.4 0 0.8 0.4 0.8 0.8v1.3c0 0.4-0.4 0.8-0.8 0.8h-9.1c-0.5 0-0.8-0.4-0.8-0.8v-1.3c0.1-0.4 0.4-0.8 0.8-0.8z"
            id="path68"/>
    <path
            class="st2"
            d="m285.9 141.9v-0.7h-10.6v0.7c0 0.4 0.3 0.8 0.8 0.8h9.1c0.3 0 0.7-0.4 0.7-0.8z"
            id="path69"/>
    <path
            class="st2"
            d="m285.1 139.9h-9.1c-0.5 0-0.8 0.4-0.8 0.8v0.6h10.6v-0.6c0.1-0.4-0.3-0.8-0.7-0.8z"
            id="path70"/>
    <path
            class="st3"
            d="m115 133.8 1.1-3.2h4.1l1.1 3.2h1.3l-3.9-10.7h-1.2l-3.9 10.7h1.4zm3.2-9.1 1.7 4.8h-3.3l1.6-4.8z"
            id="path71"/>
    <path
            class="st3"
            d="m168.4 130.9c0 1.9 1.6 3.1 3.8 3.1 2.4 0 4-1.2 4-3.2 0-1.4-0.8-2.3-2.8-2.9l-1.9-0.5c-1-0.2-1.5-0.8-1.5-1.6 0-1.1 1-1.9 2.3-1.9 1.4 0 2.3 0.7 2.5 1.9h1.3c-0.1-1.8-1.6-3-3.7-3-2.2 0-3.7 1.3-3.7 3 0 1.4 0.9 2.4 2.5 2.8l1.9 0.5c1.3 0.3 1.8 0.8 1.8 1.7 0 1.2-1 2-2.6 2-1.5 0-2.6-0.8-2.7-2l-1.2 0.1z"
            id="path72"/>
    <path
            class="st3"
            d="m223 122.6v10.7h3.3c3.2 0 4.8-1.8 4.8-5.4s-1.6-5.4-4.8-5.4l-3.3 0.1zm1.2 1.2h2.1c2.3 0 3.5 1.4 3.5 4.2 0 2.9-1.1 4.2-3.5 4.2h-2.1v-8.4z"
            id="path73"/>
    <polygon
            class="st3"
            points="278.8 133.1 278.8 128.4 283.4 128.4 283.4 127.3 278.8 127.3 278.8 123.5 283.7 123.5 283.7 122.4 277.5 122.4 277.5 133.1"
            id="polygon73"/>
    <path
            class="st3"
            d="m339.4 125.7c-0.2-2.1-1.7-3.5-3.9-3.5-2.6 0-4.3 1.8-4.3 4.8v1.4c0 3.2 1.6 4.9 4.3 4.9 2.5 0 3.9-1.5 3.9-3.5v-2.3h-4.1v1.1h2.9v1.1c0 1.4-0.9 2.4-2.7 2.4-1.9 0-3-1.4-3-3.8v-1.4c0-2.3 1.1-3.7 2.9-3.7 1.5 0 2.6 0.9 2.7 2.3h1.3v0.2z"
            id="path74"/>
    <polygon
            class="st3"
            points="393.2 133.2 393.2 122.5 391.9 122.5 391.9 127.1 386.4 127.1 386.4 122.5 385.1 122.5 385.1 133.2 386.4 133.2 386.4 128.2 391.9 128.2 391.9 133.2"
            id="polygon74"/>
    <path
            class="st3"
            d="m440.2 130.8c0 1.5 1.2 2.6 2.9 2.6 2 0 3.1-1.2 3.1-3.2v-7.7h-1.3v7.8c0 1.4-0.6 2-1.8 2-1 0-1.7-0.6-1.7-1.4h-1.2v-0.1z"
            id="path75"/>
    <polygon
            class="st3"
            points="501.2 122.4 499.7 122.4 494.9 127.6 494.9 127.6 494.9 122.4 493.6 122.4 493.6 133 494.9 133 494.9 129.3 496.2 127.8 499.8 133 501.4 133 497.2 126.9"
            id="polygon75"/>
    <polygon
            class="st3"
            points="555.3 132 550.2 132 550.2 122.5 549 122.5 549 133.1 555.3 133.1"
            id="polygon76"/>
    <path
            class="st3"
            d="m604.8 115.4c0 0.5 0.5 1 1.1 1s1.1-0.5 1.1-1c0-0.7-0.5-1.1-1.1-1.1-0.7 0-1.1 0.5-1.1 1.1zm0 5.9c0 0.5 0.5 1 1.1 1 0.7 0 1.1-0.5 1.1-1 0-0.7-0.5-1.1-1.1-1.1s-1.1 0.5-1.1 1.1z"
            id="path76"/>
    <path
            class="st3"
            d="m604.7 132c0 0.6 0.5 1.1 1.1 1.1s1.1-0.5 1.1-1.1-0.5-1.1-1.1-1.1-1.1 0.5-1.1 1.1zm0.1 9.5 1.4-3.6h-1.5l-1 3.6h1.1z"
            id="path78"/>
    <path
            class="st3"
            d="m658.2 117.7 0.8-3.9h-1.3l-0.6 3.9h1.1zm3 0 0.9-3.9h-1.3l-0.7 3.9h1.1z"
            id="path79"/>
    <polygon
            class="st3"
            points="659.7 134.5 661 130.5 659.6 130.5 658.7 134.5"
            id="polygon79"/>
    <polygon
            class="st3"
            points="79.5 37.3 79.5 26.8 78.4 26.8 75.9 28.7 75.9 30 78.3 28.2 78.4 28.2 78.4 37.3"
            id="polygon80"/>
    <path
            class="st3"
            d="m130.5 29.4c0-1.1 0.8-2.1 2.1-2.1 1.1 0 2 0.8 2 2 0 1.1-0.7 1.8-1.3 2.5l-4.1 4.8v0.8h6.8v-1.1h-5v-0.1l2.9-3.5c1.1-1.2 1.9-2.1 1.9-3.5 0-1.7-1.4-2.9-3.3-2.9-2.2 0-3.4 1.5-3.4 3.2h1.4v-0.1z"
            id="path81"/>
    <path
            class="st3"
            d="m184.9 32.2h1.2c1.4 0 2.3 0.8 2.3 2 0 1.3-1 2.2-2.5 2.1-1.3 0-2.2-0.7-2.3-1.6h-1.2c0.1 1.6 1.4 2.7 3.5 2.7 2.3 0 3.8-1.4 3.8-3.2-0.1-1.7-1.5-2.5-2.4-2.6v-0.1c0.8-0.1 2-1.1 2-2.6-0.1-1.5-1.4-2.8-3.4-2.7-2 0-3.2 1.4-3.2 2.6h1.2c0.1-0.8 0.8-1.6 2-1.6s2 0.8 2 1.9-0.9 2-2 2h-1.1l0.1 1.1z"
            id="path82"/>
    <path
            class="st3"
            d="m240.9 26.4c-1.6 2.5-3.2 5-4.6 7.4v1.2h5.3v2.3h1.2v-2.3h1.4v-1.1h-1.4v-7.5h-1.9zm-3.3 7.5v-0.2c1.2-2 2.6-4.2 3.9-6.2h0.1v6.3h-4v0.1z"
            id="path83"/>
    <path
            class="st3"
            d="m290.8 34.9c0.2 1.5 1.5 2.6 3.5 2.6 2.2 0 3.8-1.5 3.8-3.8 0-2.2-1.6-3.5-3.5-3.5-1.2 0-2 0.6-2.2 0.9h-0.1l0.3-3.6h4.9v-1.1h-6l-0.5 6.2h1.1c0.3-0.5 1.1-1.2 2.3-1.2 1.3 0 2.4 0.9 2.4 2.4 0 1.7-1.3 2.6-2.4 2.6-1 0-2-0.4-2.3-1.5h-1.3z"
            id="path84"/>
    <path
            class="st3"
            d="m352.2 28.6c-0.1-1.2-1.3-2.4-3.2-2.4-2.3 0-4 1.9-4 6.1 0 1.7 0.3 2.8 0.8 3.6 0.8 1.2 2 1.6 3 1.6 2.1 0 3.7-1.4 3.7-3.7s-1.7-3.5-3.4-3.5c-1.6 0-2.5 0.9-2.8 1.7h-0.1c0-3.2 1.2-4.6 2.7-4.6 1.4 0 1.9 0.8 2 1.3l1.3-0.1zm-5.8 5.2c0-1.4 1-2.4 2.4-2.4 1.2 0 2.3 0.8 2.3 2.5s-1.1 2.5-2.3 2.5-2.4-0.9-2.4-2.6z"
            id="path85"/>
    <polygon
            class="st3"
            points="399.3 26.4 399.3 27.6 404.8 27.6 404.8 27.6 400.3 37.3 401.7 37.3 406.1 27.6 406.1 26.4"
            id="polygon85"/>
    <path
            class="st3"
            d="m456.6 36.5c-1.4 0-2.5-0.9-2.5-2.2 0-1.2 1.1-2.1 2.5-2.1 1.5 0 2.6 0.9 2.6 2.1 0 1.3-1 2.2-2.6 2.2zm0.1-5.4c-1.3 0-2.1-0.8-2.1-2s0.8-1.9 2.1-1.9c1.2 0 2 0.8 2 1.9s-0.8 2-2 2zm-0.1 6.4c2.2 0 3.8-1.3 3.8-3.2 0-1.7-1.3-2.6-2.2-2.8 0.7-0.2 1.8-1 1.8-2.5 0-1.7-1.4-2.9-3.3-2.9-2 0-3.4 1.2-3.4 2.9 0 1.4 1.1 2.2 1.7 2.5-0.8 0.2-2.1 1.1-2.1 2.8 0 1.9 1.6 3.2 3.7 3.2z"
            id="path86"/>
    <path
            class="st3"
            d="m507.4 35.3c0.2 1.1 1.2 2.2 3.2 2.2 2.7 0 4-2 4-6 0-4.4-2-5.4-3.8-5.4-2 0-3.7 1.4-3.7 3.7s1.5 3.7 3.5 3.7c1.5 0 2.3-0.8 2.7-1.7h0.1c0.1 2.5-0.7 4.6-2.8 4.6-1.1 0-1.7-0.5-1.9-1.1h-1.3zm5.7-5.4c0 1.7-1.2 2.5-2.4 2.5s-2.3-0.8-2.3-2.5 1.1-2.6 2.3-2.6c1.4 0 2.4 0.9 2.4 2.6z"
            id="path87"/>
    <path
            class="st3"
            d="m562.3 31.7c0-2.7 1-4.4 2.6-4.4 1.5 0 2.5 1.7 2.5 4.4v0.3c0 2.7-1 4.4-2.5 4.4-1.6 0-2.6-1.7-2.6-4.4v-0.3zm-1.2 0.4c0 3.2 1.4 5.4 3.8 5.4s3.8-2.2 3.8-5.4v-0.4c0-3.3-1.4-5.5-3.8-5.5s-3.8 2.2-3.8 5.5v0.4z"
            id="path88"/>
    <path
            class="st3"
            d="m77.5 17.8c0 0.4 0.3 0.6 0.6 0.6 0.4 0 0.7-0.2 0.7-0.6s-0.3-0.6-0.7-0.6c-0.3 0-0.6 0.2-0.6 0.6zm0.3-8.2 0.1 6.1h0.7l0.2-6.1h-1z"
            id="path89"/>
    <path
            class="st3"
            d="m134.5 15.6c1 0 1.7-0.9 1.7-2.3v-0.3c0-1.7-1.2-3.4-3.6-3.4-2.2 0-3.8 1.5-3.8 3.9v0.3c0 2.6 1.7 3.9 3.8 3.9 0.8 0 1.4-0.2 1.7-0.3v-0.6c-0.4 0.2-0.8 0.3-1.7 0.3-1.7 0-3.1-1.1-3.1-3.2v-0.2c0-2 1.4-3.3 3.1-3.3 2 0 3 1.4 3 2.8v0.2c0 1.2-0.5 1.7-1 1.7-0.4 0-0.6-0.2-0.6-0.6v-2.5h-0.7v0.5h-0.1c-0.1-0.2-0.4-0.6-1-0.6-0.8 0-1.4 0.7-1.4 1.7v0.5c0 1 0.5 1.7 1.3 1.7 0.6 0 1.1-0.5 1.1-0.8h0.1c0.1 0.2 0.5 0.6 1.2 0.6zm-2.8-1.9v-0.3c0-0.8 0.3-1.1 0.8-1.1s0.9 0.4 0.9 1.1v0.4c0 0.8-0.4 1.1-0.8 1.1-0.6 0-0.9-0.3-0.9-1.2z"
            id="path90"/>
    <path
            class="st3"
            d="m189.1 12.7 0.2-0.7h-1.2l0.4-2.2h-0.7l-0.5 2.2h-1.7l0.5-2.2h-0.8l-0.3 2.2h-1.1l-0.2 0.7h1.1l-0.4 1.9h-1.2l-0.2 0.8h1.2l-0.5 2.2h0.7l0.5-2.2h1.7l-0.5 2.2h0.8l0.5-2.2h1.1l0.2-0.8h-1.1l0.4-1.9h1.1zm-3.6 0h1.7l-0.4 1.9h-1.7l0.4-1.9z"
            id="path91"/>
    <path
            class="st3"
            d="m238.7 11.3c0-0.8 0.6-1.1 1.4-1.2v2.5c-0.2-0.1-0.3-0.1-0.4-0.2-0.7-0.2-1-0.5-1-1.1zm3.5 3.7c0 0.8-0.6 1.2-1.5 1.3v-2.6h0.2c1 0.3 1.3 0.7 1.3 1.3zm-1.5 2.8v-0.7c1.3-0.2 2.3-0.8 2.3-2.2 0-1.2-0.7-1.7-1.9-2l-0.5-0.2v-2.6c0.8 0.1 1.4 0.6 1.4 1.3h0.8c0-1.3-1-2-2.2-2.1v-0.7h-0.6v0.7c-1.2 0.2-2.2 0.8-2.2 2.1 0 1.2 0.9 1.7 1.7 2l0.5 0.1v2.9c-1-0.1-1.4-0.6-1.5-1.3h-0.8c0 1.1 0.8 2 2.3 2.1v0.7h0.7v-0.1z"
            id="path92"/>
    <path
            class="st3"
            d="m291.2 11.2c0-0.7 0.2-1.3 0.8-1.3s0.9 0.5 0.9 1.3v0.1c0 0.8-0.3 1.4-0.9 1.4-0.5-0.1-0.8-0.7-0.8-1.5zm-0.7 0.1c0 1.1 0.5 1.9 1.5 1.9s1.6-0.9 1.6-1.9v-0.2c0-1.1-0.6-1.9-1.6-1.9s-1.5 0.8-1.5 1.9v0.2zm5.2 3.7c0-0.7 0.3-1.3 0.9-1.3 0.5 0 0.8 0.6 0.8 1.4s-0.3 1.4-0.8 1.4c-0.6 0-0.9-0.6-0.9-1.5zm-0.7 0.2c0 1.1 0.6 1.9 1.5 1.9 1.1 0 1.6-0.8 1.6-1.9v-0.2c0-1.1-0.6-1.9-1.5-1.9-1 0-1.6 0.8-1.6 1.9v0.2zm-3.2 1.8 5.8-7.8h-0.8l-5.8 7.8h0.8z"
            id="path93"/>
    <path
            class="st3"
            d="m404.9 17.1h1.1l-1.3-1.4c0.5-0.7 0.6-1.7 0.6-2.8v-0.2h-0.8v0.3c0 1-0.1 1.7-0.4 2.2l-1.9-2.1c0.9-0.5 1.7-1 1.7-2s-0.8-1.7-2-1.7c-1.1 0-1.9 0.8-1.9 1.7 0 0.7 0.5 1.2 1 1.7-0.2 0.1-0.2 0.2-0.3 0.2-0.8 0.5-1.5 1.1-1.5 2.1 0 1.4 1.1 2.2 2.6 2.2 0.7 0 1.6-0.2 2.4-0.9l0.7 0.7zm-3.7-3.6c0.1 0 0.2-0.1 0.2-0.1l2.2 2.4c-0.5 0.5-1.3 0.7-1.8 0.7-0.9 0-1.7-0.5-1.7-1.4 0-0.8 0.4-1.2 1.1-1.6zm0.5-1c-0.6-0.6-0.8-1-0.8-1.4 0-0.6 0.4-1.1 1-1.1s1.1 0.4 1.1 1c0 0.8-0.6 1.2-1.3 1.5z"
            id="path94"/>
    <polygon
            class="st3"
            points="457.1 14.1 457 12.2 458.5 13.2 458.9 12.6 457.3 11.8 458.9 10.9 458.5 10.3 457 11.3 457.1 9.5 456.3 9.5 456.5 11.3 454.9 10.3 454.6 10.9 456.2 11.8 454.6 12.6 454.9 13.2 456.5 12.2 456.3 14.1"
            id="polygon94"/>
    <path
            class="st3"
            d="m511.1 9.5c-0.5 0.7-1.2 1.7-1.2 3.7s0.7 3.2 1.1 3.9h0.7c-0.5-0.7-1.1-1.9-1.1-3.9s0.8-3.3 1.1-3.7h-0.6z"
            id="path95"/>
    <polygon
            class="st3"
            points="345.6 13.2 348.1 9.1 349 9.1 351.5 13.1 351.3 13.2 350.3 13.2 348.5 10.4 346.9 13.2"
            id="polygon95"/>
    <path
            class="st3"
            d="m564.5 9.5c0.5 0.7 1.2 1.7 1.2 3.7s-0.7 3.2-1.2 3.9h-0.6c0.4-0.7 1.1-1.9 1.1-3.9s-0.7-3.3-1.1-3.7h0.6z"
            id="path96"/>
    <polygon
            class="st3"
            points="621.3 32 621.3 31 616.6 31 616.6 32"
            id="polygon96"/>
    <polygon
            class="st3"
            points="622.4 13.7 622.4 12.8 615.7 12.8 615.7 13.7"
            id="polygon97"/>
    <path
            class="st3"
            d="m675.6 33.5v-0.9h-6.1v0.9h6.1zm0-2.6v-1h-6.1v1h6.1z"
            id="path97"/>
    <polygon
            class="st3"
            points="673 13.8 676.1 13.8 676.1 12.8 673 12.8 673 9.7 672.1 9.7 672.1 12.8 669 12.8 669 13.8 672.1 13.8 672.1 17.2 673 17.2"
            id="polygon98"/>
    <polygon
            class="st3"
            points="141.9 186.9 149.6 186.9 149.6 185.7 143.6 185.7 143.6 185.7 149.4 177 149.4 176.1 142.2 176.1 142.2 177.2 147.8 177.2 147.8 177.3 141.9 186"
            id="polygon99"/>
    <polygon
            class="st3"
            points="204.5 175.8 203 175.8 200.2 180.1 200.2 180.1 197.4 175.8 195.9 175.8 199.3 181.1 195.8 186.6 197.2 186.6 200 182.2 200.1 182.2 202.9 186.6 204.4 186.6 200.8 181.2"
            id="polygon100"/>
    <path
            class="st3"
            d="m250.9 179.9c0-2.3 1.1-3.7 3-3.7 1.5 0 2.6 1 2.6 2.4h1.2c0-2-1.7-3.5-3.9-3.5-2.7 0-4.2 1.7-4.2 4.8v1.6c0 3.1 1.5 4.8 4.2 4.8 2.2 0 3.9-1.5 3.9-3.5h-1.2c0 1.4-1.1 2.3-2.6 2.3-1.9 0-3-1.4-3-3.7v-1.5z"
            id="path100"/>
    <polygon
            class="st3"
            points="307.8 186.5 309 186.5 312.9 175.7 311.5 175.7 308.4 185 308.3 185 305.2 175.7 303.8 175.7"
            id="polygon101"/>
    <path
            class="st3"
            d="m358.8 186.3h3.8c2.3 0 3.8-1.1 3.8-3 0-1.5-0.9-2.5-2.3-2.7v-0.1c1.1-0.3 1.7-1.1 1.7-2.3 0-1.7-1.1-2.6-2.9-2.6h-3.9v10.7h-0.2zm1.2-9.7h2.6c1.1 0 1.8 0.6 1.8 1.7 0 1.2-0.8 1.8-2.6 1.8h-1.8v-3.5zm0 4.7h2.7c1.4 0 2.3 0.7 2.3 2 0 1.4-0.8 1.9-3 1.9h-2v-3.9z"
            id="path101"/>
    <polygon
            class="st3"
            points="413.8 185.9 413.8 177.3 413.8 177.3 419.4 185.9 420.6 185.9 420.6 175.1 419.4 175.1 419.4 183.8 419.4 183.8 413.8 175.1 412.6 175.1 412.6 185.9"
            id="polygon102"/>
    <polygon
            class="st3"
            points="466.8 186 466.8 177.9 466.9 177.9 470 185.1 471.1 185.1 474.2 177.9 474.3 177.9 474.3 186 475.4 186 475.4 175.2 474.2 175.2 470.6 183.8 470.5 183.8 466.9 175.2 465.7 175.2 465.7 186"
            id="polygon103"/>
    <polygon
            class="st3"
            points="524.8 194.6 526.3 190.6 524.9 190.6 523.9 194.6"
            id="polygon104"/>
    <polygon
            class="st3"
            points="521.9 171.3 528.1 174.8 528.1 173.6 523.1 170.8 523.1 170.7 528.1 167.8 528.1 166.5 521.9 170.3"
            id="polygon105"/>
    <path
            class="st3"
            d="m579.9 191.6c0 0.6-0.5 1-1 1-0.6 0-1-0.4-1-1 0-0.5 0.4-1 1-1s1 0.5 1 1z"
            id="path105"/>
    <polygon
            class="st3"
            points="581.9 171.3 575.7 174.8 575.7 173.6 580.8 170.8 580.8 170.7 575.7 167.8 575.7 166.5 581.9 170.3"
            id="polygon106"/>
    <polygon
            class="st3"
            points="631.9 195.4 635.6 182.6 634.5 182.6 630.8 195.4"
            id="polygon107"/>
    <path
            class="st3"
            d="m631.7 175.5c0 0.6 0.5 1.1 1.1 1.1s1.1-0.5 1.1-1.1-0.5-1.1-1.1-1.1c-0.7 0-1.1 0.5-1.1 1.1zm-2.1-7.1h1.2c0-1.1 0.7-2 2-2 1 0 1.9 0.5 1.9 1.7 0 0.8-0.5 1.2-1.2 1.8-0.8 0.7-1.5 1.3-1.5 2.4v0.8h1.2v-0.5c0-0.9 0.4-1.2 1.3-2 0.8-0.6 1.5-1.3 1.5-2.6 0-1.9-1.5-2.7-3.2-2.7-1.4 0-3.2 0.7-3.2 3.1z"
            id="path107"/>
    <path
            class="st3"
            d="m643.9 232.9 5.1-2.3c0.1 0 0.2 0 0.2 0.2h0.1v4.5c0 0.1-0.1 0.2-0.2 0.2h-0.1l-5.1-2.2c-0.2-0.1-0.2-0.2-0.2-0.2 0.1-0.2 0.1-0.2 0.2-0.2z"
            id="path118"/>
    <path
            class="st3"
            d="m757.3 232.9-5.1-2.3c-0.1 0-0.2 0-0.2 0.2v4.5c0 0.1 0.1 0.2 0.2 0.2h0.1l5.1-2.2c0-0.1 0-0.2-0.1-0.4 0.1 0 0 0 0 0z"
            id="path119"/>
    <path
            class="st3"
            d="m700.3 249.8 2.2-5.2c0-0.1 0-0.2-0.1-0.2h-4.4c-0.1 0-0.2 0.1-0.2 0.2s0 0.1 0 0.1l2.2 5.2c0.1 0 0.2 0.1 0.3-0.1z"
            id="path120"/>
    <path
            class="st3"
            d="m700.3 217.3 2.2 5.2c0 0.1 0 0.2-0.1 0.2 0 0.1-0.1 0.1-0.1 0.1h-4.3c-0.1 0-0.2-0.1-0.2-0.2v-0.1l2.2-5.1c0.1-0.2 0.2-0.3 0.3-0.1-0.1-0.1 0-0.1 0 0z"
            id="path121"/>
    <path
            class="st3"
            d="m109.8 83.1-1.5-2c0.9-0.9 1.4-2.2 1.4-3.9v-1.7c0-3-1.6-4.8-4.2-4.8s-4.3 1.8-4.3 4.8v1.7c0 3 1.7 4.9 4.3 4.9 0.7 0 1.4-0.2 1.9-0.5l1.1 1.4 1.3 0.1zm-7.4-5.9v-1.7c0-2.3 1.1-3.7 3-3.7 1.8 0 3 1.4 3 3.7v1.7c0 1.2-0.3 2.2-0.9 2.8l-1-1.4h-1.5l1.5 2c-0.3 0.2-0.7 0.2-1.1 0.2-1.9 0.1-3-1.3-3-3.6z"
            id="path122"/>
    <polygon
            class="st3"
            points="156.4 81.5 158.7 72.7 158.8 72.7 161.1 81.5 162.2 81.5 165.2 70.6 163.7 70.6 161.7 79.5 161.6 79.5 159.4 70.6 158.1 70.6 155.9 79.5 155.9 79.5 153.8 70.6 152.4 70.6 155.3 81.5"
            id="polygon122"/>
    <polygon
            class="st3"
            points="216.5 80.3 211.4 80.3 211.4 76.5 216.2 76.5 216.2 75.4 211.4 75.4 211.4 71.7 216.5 71.7 216.5 70.6 210.2 70.6 210.2 81.5 216.5 81.5"
            id="polygon123"/>
    <path
            class="st3"
            d="m267.7 70.6h-3.9v10.9h1.3v-4.4h2.7l2 4.4h1.4l-2.2-4.6c1.3-0.5 2-1.6 2-3.1 0.1-2-1.2-3.2-3.3-3.2zm-2.5 5.4v-4.2h2.4c1.4 0 2.3 0.8 2.3 2.2s-0.8 2-2.3 2h-2.4z"
            id="path123"/>
    <polygon
            class="st3"
            points="322.5 81.5 322.5 71.7 325.8 71.7 325.8 70.6 317.9 70.6 317.9 71.7 321.2 71.7 321.2 81.5"
            id="polygon124"/>
    <polygon
            class="st3"
            points="376 81.5 376 76.7 379.6 70.6 378.2 70.6 375.5 75.4 375.4 75.4 372.6 70.6 371.2 70.6 374.8 76.7 374.8 81.5"
            id="polygon125"/>
    <path
            class="st3"
            d="m429.8 80.6c-1.7 0-2.8-1.1-2.8-2.9v-7.1h-1.2v7.1c0 2.4 1.6 4 4 4s4.1-1.6 4.1-4v-7.1h-1.3v7.1c0 1.8-1.1 2.9-2.8 2.9z"
            id="path125"/>
    <polygon
            class="st3"
            points="484.6 81.5 484.6 70.6 483.4 70.6 483.4 81.5"
            id="polygon126"/>
    <path
            class="st3"
            d="m540.9 75.2v1.7c0 2.5-1.3 3.7-3 3.7s-3-1.2-3-3.7v-1.7c0-2.5 1.4-3.7 3-3.7 1.7 0 3 1.2 3 3.7zm1.3 1.7v-1.7c0-3.1-1.7-4.8-4.3-4.8s-4.2 1.7-4.2 4.8v1.7c0 3.1 1.7 4.8 4.2 4.8s4.3-1.7 4.3-4.8z"
            id="path126"/>
    <path
            class="st3"
            d="m592.6 70.3h-3.9v10.9h1.3v-4.2h2.6c2 0 3.4-1.4 3.4-3.4 0-1.9-1.4-3.3-3.4-3.3zm2.1 3.3c0 1.4-0.8 2.3-2.1 2.3h-2.6v-4.5h2.6c1.3 0 2.1 0.9 2.1 2.2z"
            id="path127"/>
    <polygon
            class="st3"
            points="644.7 79.6 644.7 91.4 647.9 91.4 647.9 90.5 645.9 90.5 645.9 80.5 647.8 80.5 647.8 79.6"
            id="polygon127"/>
    <path
            class="st3"
            d="m645.3 65.8c0.8-0.1 1.2-0.6 1.2-1.7v-2.1c0-1.1 0.5-1.7 1.7-1.7h0.3v-0.9h-0.4c-1.7 0-2.6 0.7-2.6 2.4v1.8c0 1.1-0.2 1.5-1.2 1.5v1.3c1 0 1.2 0.5 1.2 1.5v2.1c0 1.7 1 2.4 2.6 2.4h0.4v-0.9h-0.3c-1.2 0-1.7-0.5-1.7-1.6v-2.4c0-1.1-0.4-1.6-1.2-1.7z"
            id="path128"/>
    <polygon
            class="st3"
            points="701.5 79.6 701.5 91.4 698.3 91.4 698.3 90.5 700.4 90.5 700.4 80.5 698.5 80.5 698.5 79.6"
            id="polygon128"/>
    <path
            class="st3"
            d="m700.9 65.8c-0.8-0.1-1.2-0.6-1.2-1.7v-2.1c0-1.1-0.5-1.7-1.7-1.7h-0.3v-0.9h0.4c1.7 0 2.6 0.7 2.6 2.4v1.8c0 1.1 0.2 1.5 1.3 1.5v1.3c-1.1 0-1.3 0.5-1.3 1.5v2.1c0 1.7-1 2.4-2.6 2.4h-0.4v-0.9h0.3c1.2 0 1.7-0.5 1.7-1.6v-2.4c0-1.1 0.4-1.6 1.2-1.7z"
            id="path129"/>
    <polygon
            class="st3"
            points="756.4 92 752.6 79.1 751.6 79.1 755.3 92"
            id="polygon129"/>
    <polygon
            class="st3"
            points="753 72.5 753 59.4 753.9 59.4 753.9 72.5"
            id="polygon130"/>
    <polygon
            class="st3"
            points="25.7 30 23.6 27 22.3 27 24.7 30"
            id="polygon131"/>
    <path
            class="st3"
            d="m25.4 15.4c1.3 0 1.9-1.1 1.9-2.2h-1c-0.1 0.6-0.4 1.2-0.9 1.2-0.9 0-1.3-1.5-2.9-1.5-1.3 0-1.8 1.1-1.8 2.2h1c0-0.7 0.3-1.3 0.9-1.3 0.9 0 1.3 1.6 2.8 1.6z"
            id="path132"/>
</svg>
