<?xml version="1.0" encoding="UTF-8" standalone="no"?>
<svg width="631.68" height="512"
     role="img"
     viewBox="-98.12 -152.12 1156.193 937.133"
     version="1.1"
     id="svg3"
     xmlns="http://www.w3.org/2000/svg"
>
  <defs
     id="defs3" />
  <title
     id="title1">Ansible logo</title>
  <path
     fill="#1a1918"
     d="m 795.547,161.432 c 0,173.175 -140.375,313.547 -313.552,313.547 -173.163,0 -313.552,-140.372 -313.552,-313.547 0,-173.163 140.389,-313.552 313.552,-313.552 173.178,0 313.552,140.389 313.552,313.552"
     id="path1" />
  <path
     fill="#ffffff"
     d="m 487.273,39.42 81.142,200.266 -122.563,-96.542 z m 144.146,246.4 -124.81,-300.369 c -3.562,-8.661 -10.689,-13.246 -19.335,-13.246 -8.663,0 -16.305,4.585 -19.868,13.246 l -136.99,329.466 h 46.862 l 54.228,-135.84 161.827,130.741 c 6.51,5.261 11.205,7.643 17.312,7.643 12.225,0 22.911,-9.168 22.911,-22.396 0,-2.154 -0.762,-5.572 -2.137,-9.245 z"
     id="path2" />
  <g
     fill="#1a1918"
     id="g3"
     transform="translate(-23.442,-23.62)">
    <path
       d="m 261.286,803.872 c -3.076,0 -6.394,-0.775 -8.698,-3.896 L 153.868,670.152 V 802.573 H 131.356 V 639.512 c 0,-6.488 5.375,-11.683 11.516,-11.683 3.576,0 6.65,1.043 8.945,4.158 l 98.467,129.564 V 629.647 h 22.51 v 162.799 c -10e-4,6.754 -5.371,11.426 -11.508,11.426 m 130.253,1.563 c -22.5,0 -46.036,-4.682 -68.031,-12.988 l 5.375,-18.693 c 20.203,6.492 42.196,11.161 62.656,11.161 28.392,0 43.227,-10.125 43.227,-24.4 0,-12.986 -11.512,-19.476 -51.156,-38.176 -39.64,-18.69 -55.238,-30.636 -55.238,-54.004 0,-29.336 22.505,-41.289 64.958,-41.289 17.648,0 44.756,3.644 60.365,8.315 l -3.583,19.209 c -17.142,-4.148 -38.62,-7.005 -56.27,-7.005 -29.918,0 -42.196,5.706 -42.196,19.994 0,14.019 8.947,19.985 50.892,39.462 44.25,20.52 55.501,30.899 55.501,52.192 -10e-4,30.904 -29.163,46.222 -66.5,46.222 M 508.75,629.268 h 23.27 v 172.928 h -23.27 z m 178.738,92.597 h -57.809 v 58.684 h 57.809 c 19.687,0 31.71,-12.467 31.71,-29.862 0,-16.36 -12.529,-28.822 -31.71,-28.822 m -11.259,-74.782 h -46.55 v 55.312 h 46.55 c 18.673,0 32.226,-11.952 32.226,-28.568 0,-16.352 -11.767,-26.744 -32.226,-26.744 m 11.513,153.193 h -69.565 c -6.654,0 -11.768,-5.192 -11.768,-11.682 v -149.56 c 0,-6.234 5.113,-11.685 11.768,-11.685 h 57.543 c 35.292,0 56.266,17.396 56.266,44.666 0,14.795 -8.696,28.558 -22,36.606 19.703,5.971 32.991,22.326 32.991,42.064 10e-4,27.518 -22.754,49.591 -55.235,49.591 m 123.282,-1.92 c -6.388,0 -11.501,-5.451 -11.501,-11.68 V 625.431 h 23.265 v 151.897 h 92.584 v 21.028 z m 212.937,0.944 c -47.576,0 -76.219,-17.656 -76.219,-53.228 0,-16.881 9.466,-32.98 27.883,-40.506 -14.834,-9.349 -22.509,-22.594 -22.509,-37.134 0,-32.196 24.822,-47.522 71.361,-47.522 15.604,0 37.594,1.827 56.011,5.979 l -2.562,19.212 c -19.433,-3.118 -37.6,-4.933 -55.247,-4.933 -30.178,0 -46.295,8.31 -46.295,28.308 0,15.835 14.842,28.298 34.539,28.298 h 39.896 c 5.625,0 9.973,4.415 9.973,9.866 0,5.712 -4.348,10.125 -9.973,10.125 h -42.964 c -22.514,0 -36.827,11.16 -36.827,28.307 0,25.179 23.27,32.707 52.428,32.707 15.861,0 37.336,-2.067 54.727,-6.221 l 3.332,18.943 c -16.632,4.683 -38.371,7.799 -57.554,7.799 M 3.878,663.545 44.64,765.674 -16.923,716.442 Z M 76.292,789.204 13.597,636.023 c -1.789,-4.416 -5.371,-6.756 -9.719,-6.756 -4.349,0 -8.186,2.34 -9.974,6.756 l -68.582,172.61 23.3,-4.594 27.248,-69.267 81.286,66.67 c 3.271,2.685 5.628,3.896 8.702,3.896 6.135,0 11.506,-4.672 11.506,-11.427 0,-1.09 -0.386,-2.832 -1.072,-4.707 z"
       id="path3" />
  </g>
</svg>

