<?xml version="1.0" encoding="UTF-8" standalone="no"?>
<svg width="615.83" height="512"
     role="img"
     viewBox="-5.65 -5.65 282.38787 234.77511"
     version="1.1"
     id="svg11"
     xmlns="http://www.w3.org/2000/svg"
>
  <title
     id="title1">Docker CE logo</title>
  <defs
     id="defs1">
    <style
       id="style1">.cls-1{fill:#0d71a8}.cls-2{fill:#0b70a6}.cls-4{fill:#0993de}</style>
  </defs>
  <path
     d="m 107.63934,18.25031 c 7.107,0 14.226,-0.239 21.317,0.095 3.887,0.182 4.776,-1.187 4.57,-4.775 -0.294,-5.1070005 0.1,-10.2520005 -0.139,-15.3650005 -0.146,-3.14 1.022,-3.91 3.981,-3.835 7.434,0.188 14.88,0.225 22.31,-0.014 3.196,-0.103 3.83,1.048 3.8,3.973 -0.139,13.2210005 0.038,26.4460005 -0.132,39.6670005 -0.04,3.191 0.77,4.313 4.082,4.146 5.441,-0.274 10.938,0.296 16.35,-0.184 4.828,-0.43 5.82,1.485 5.522,5.787 -0.342,4.935 0.065,9.918 -0.136,14.868 -0.11,2.68 0.813,3.602 3.359,3.1 1.293,-0.254 2.6,-0.448 3.883,-0.744 6.832,-1.576 6.689,-1.54 4.717,-7.83 -3.619,-11.54 -1.283,-22.113 5.483,-31.941 1.34,-1.946 2.291,-1.505 3.945,-0.428 7.311,4.765 12.91,10.893 15.16,19.455 0.694,2.644 1.833,2.863 4.106,2.767 7.78,-0.327 15.52,-0.45 22.41,4.313 2.187,1.511 2.614,2.668 1.492,5.143 -5.365,11.838 -14.735,17.484 -27.399,17.683 -3.457,0.055 -4.824,1.357 -6.154,4.223 -17.81,38.392 -48.723,58.108 -90.047,62.888 -14.062,1.627 -28.102,1.73 -41.776005,-2.291 -25.49,-7.497 -39.204,-25.435 -44.004,-50.93 a 80.902,80.902 0 0 1 -0.958,-17.776 c 0.111,-3.301 1.351,-4.902 4.807,-4.38 0.97,0.145 1.999,-0.103 2.969,0.043 3.805,0.572 5.274,-0.77 4.973,-4.806 -0.368,-4.931 0.086,-9.919 -0.15,-14.866 -0.152,-3.165 0.696,-4.402 4.083,-4.242 5.772,0.27 11.574,-0.102 17.349,0.142 3.336,0.14 4.746,-0.681 4.51,-4.313 -0.312,-4.773 0.296,-9.62 -0.182,-14.364 -0.474,-4.7 1.435,-5.497 5.573,-5.297 6.76,0.326 13.549005,0.088 20.326005,0.088 z m 20.377,118.688 c 4.216,-0.563 8.478,-0.899 12.643,-1.725 35.451,-7.03 61.163,-26.549 75.93,-59.803 1.825,-4.109 3.912,-6.145 8.774,-5.79 8.354,0.61 15.608,-2.276 20.892,-9.055 4.008,-5.142 2.742,-7.377 -3.728,-8.796 -7.006,-1.537 -13.695,-0.224 -20.479,0.93 0.934,-8.995 -3.575,-15.418 -9.82,-21.104 -2.126,-1.935 -3.595,-2.065 -4.864,0.751 -4.213,9.35 -5.508,18.856 0.174,27.924 2.2,3.511 0.708,4.69 -1.782,6.024 -6.267,3.357 -13.155,4.28 -20.092,4.297 q -66.71,0.156 -133.420005,0.088 c -3.876,-0.624 -5.294,0.92 -4.977,4.888 0.964,12.042 3.24,23.576 9.41,34.281 2.8,4.86 6.16,6.929 11.476,6.407 9.107,0.932 17.618,-1.374 25.832,-4.969 2.704,-1.183 4.43,-1.14 4.985,2.154 -10.141,6.086 -21.32,7.804 -33.415,7.372 a 35.06,35.06 0 0 0 8.872,7.259 c 16.688,9.996 34.877005,11.039 53.589005,8.867 z m 20.502,-137.77000047 h -3.963 c -6.952,0.002 -6.952,0.002 -6.955,6.87299997 -0.004,12.1150005 -0.004,12.1150005 12.6,12.1150005 9.197,0 9.197,0 9.197,-9.0880005 0,-9.89999997 0,-9.89999997 -10.879,-9.89999997 z m 25.531,66.62400047 c 1.321,0 2.643,0.01 3.964,-0.002 7.956,-0.066 7.158,0.859 7.18,-7.131 0.032,-11.856 0.01,-11.856 -11.89,-11.856 -9.9,10e-4 -9.9,10e-4 -9.9,8.388 0,10.601 0,10.601 10.646,10.601 z m -25.642,0 h 3.963 c 7.025,-0.002 7.025,-0.002 7.027,-6.799 0.006,-12.19 0.006,-12.19 -12.553,-12.19 -9.243,0 -9.243,0 -9.243,9.045 0,9.944 0,9.944 10.806,9.944 z m -25.77,-18.989 h -3.963 c -6.874,0.003 -6.874,0.003 -6.876,6.952 -0.005,12.037 -0.005,12.037 12.182,12.037 9.614,0 9.614,0 9.615,-8.67 0,-10.319 0,-10.319 -10.957,-10.319 z m -25.861005,18.989 a 29.482,29.482 0 0 1 4.947005,0.043 c 5.267,0.909 6.298,-1.493 6.18,-6.323 -0.312,-12.703 -0.096,-12.76 -13.630005,-12.691 -9.447,0.048 -8.205,-1.26 -8.262,8.01 -0.067,10.96 -0.016,10.961 10.765,10.961 z m 25.900005,-42.807 h -3.964 c -6.911,0.003 -6.911,0.003 -6.913,6.915 -0.005,12.074 -0.005,12.074 12.145,12.074 9.651,0 9.651,0 9.651,-9.129 0,-9.86 0,-9.86 -10.92,-9.86 z m 25.95,0 a 29.67,29.67 0 0 1 -4.948,-0.042 c -5.251,-0.9 -6.308,1.474 -6.188,6.318 0.315,12.708 0.097,12.77 13.595,12.694 9.614,-0.055 8.225,1.34 8.296,-8.467 0.077,-10.502 0.018,-10.503 -10.755,-10.503 z m -77.680005,23.818 c -10.756,0 -10.756,0 -10.755,11 0,1.322 0.107,2.653 -0.02,3.962 -0.286,2.91 0.723,4.222 3.866,4.08 4.615,-0.21 9.255,-0.234 13.867,0.005 3.388,0.176 4.446,-1.244 4.103,-4.356 a 31.822,31.822 0 0 1 -0.02,-3.466 c 0.001,-11.225 0.001,-11.225 -11.041,-11.225 z m 25.832,-4.83 a 29.412,29.412 0 0 1 4.947005,0.044 c 5.276,0.913 6.293,-1.506 6.175,-6.328 -0.31,-12.699 -0.095,-12.704 -12.641005,-12.704 -9.265,0 -9.265,0 -9.265,9.023 0,9.966 0,9.966 10.784,9.966 z"
     class="cls-1"
     id="path1" />
  <path
     d="m 33.223335,185.61231 c 0,-6.605 0.08,-12.52 -0.03,-18.431 -0.064,-3.481 0.436,-6.675 4.71,-6.575 4.289,0.1 4.482,3.437 4.463,6.823 -0.072,12.563 0.007,25.127 -0.04,37.69 a 23.743,23.743 0 0 1 -17.033,22.985 24.333,24.333 0 0 1 -27.5559995,-10.586 c -5.383,-8.648 -4.246,-20.832 2.66899999,-28.596 a 24.404,24.404 0 0 1 28.11999951,-5.816 c 1.337,0.615 2.603,1.383 4.697,2.506 z m -29.5899995,19.144 a 14.57,14.57 0 0 0 14.4619995,14.96 14.964,14.964 0 0 0 15.124,-14.472 c 0.19,-7.892 -6.586,-14.91 -14.613,-15.133 -7.883,-0.22 -14.8829995,6.627 -14.9729995,14.645 z m 195.5010045,4.899 c 3.826,9.432 13.266,12.777 21.281,8.07 0.568,-0.333 1.087,-0.747 1.638,-1.107 2.496,-1.634 5.082,-2.048 6.97,0.637 2.02,2.87 0.7,5.23 -1.833,7.199 -13.064,10.15 -33.466,2.89 -37.618,-13.412 -3.266,-12.824 4.485,-26.095 17.097,-29.274 a 24.064,24.064 0 0 1 29.7,17.717 c 1.903,8.046 0.219,10.168 -8.085,10.17 -9.572,0.003 -19.144,0 -29.15,0 z m 27.395,-9.116 a 13.859,13.859 0 0 0 -12.643,-10.346 c -5.273,-0.47 -11.838,3.174 -14.036,7.66 -0.882,1.799 -0.847,2.717 1.499,2.704 8.356,-0.046 16.712,-0.018 25.18,-0.018 z m -73.87,-2.433 22.116,-14.316 a 33.505,33.505 0 0 1 2.922,-1.852 c 2.688,-1.368 5.162,-1.306 6.804,1.6 1.538,2.721 0.352,4.74 -1.998,6.279 -4.554,2.982 -9.057,6.052 -13.72,8.856 -2.436,1.465 -2.805,2.516 -0.713,4.744 5.084,5.415 9.885,11.095 14.845,16.627 2.232,2.49 3.493,5.178 0.517,7.727 -2.935,2.514 -5.414,0.906 -7.606,-1.601 -4.997,-5.718 -10.025,-11.411 -15.16,-17.004 -1.071,-1.167 -1.73,-3.648 -4.199,-2.398 -2.252,1.14 -4.127,2.435 -3.877,5.592 0.299,3.776 0.018,7.595 0.083,11.394 0.055,3.196 -1.4,5.242 -4.591,5.18 -3.16,-0.062 -4.548,-2.193 -4.545,-5.327 q 0.03,-28.748 -0.004,-57.495 c -0.005,-3.336 1.329,-5.597 4.836,-5.49 3.257,0.101 4.344,2.323 4.32,5.444 -0.08,10.35 -0.03,20.702 -0.03,32.04 z"
     class="cls-2"
     id="path2" />
  <path
     d="m 70.376335,181.00731 a 24.033,24.033 0 1 1 -24.074,24.264 23.938,23.938 0 0 1 24.074,-24.264 z m 0.172,38.701 a 14.633,14.633 0 0 0 14.588,-14.86 14.933,14.933 0 0 0 -14.91,-14.656 c -8.003,0.136 -14.925,7.155 -14.76,14.969 a 14.929,14.929 0 0 0 15.082,14.547 z m 52.109005,-38.715 a 22.83,22.83 0 0 1 13.46,4.239 c 2.814,1.97 4.99,4.407 2.543,7.79 -2.29,3.164 -5.06,1.836 -7.795,0.056 -6.34,-4.126 -12.928,-3.745 -18.246,0.834 a 14.717,14.717 0 0 0 16.696,24.02 19.82,19.82 0 0 0 1.682,-1.042 c 2.739,-1.876 5.617,-2.68 7.739,0.552 2.18,3.32 -0.105,5.502 -2.677,7.364 -12.968,9.39 -32.487,2.52 -36.855005,-12.974 a 24.026,24.026 0 0 1 23.453005,-30.839 z"
     class="cls-1"
     id="path3" />
  <path
     d="m 250.19634,185.59731 a 24.967,24.967 0 0 1 21.246,-3.765 c 3.237,0.852 6.168,2.421 5.055,6.482 -1.053,3.838 -3.925,3.465 -7.165,2.658 -11.27,-2.807 -19.531,3.863 -19.575,15.594 -0.02,5.441 -0.078,10.884 0.023,16.324 0.064,3.45 -1.005,6.096 -4.809,6.029 -3.57,-0.062 -4.39,-2.664 -4.366,-5.884 0.087,-11.871 0.06,-23.744 0.016,-35.617 -0.01,-2.776 0.07,-5.478 3.414,-6.242 3.493,-0.799 5.067,1.488 6.16,4.42 z"
     class="cls-2"
     id="path4" />
  <path
     fill="#099bea"
     d="m 98.971335,113.44031 c -0.555,-3.294 -2.282,-3.337 -4.986,-2.154 -8.214,3.595 -16.725,5.901 -25.832,4.97 a 13.1,13.1 0 0 0 -1.27,-2.58 c -10.066,-12.574 -13.397,-27.427 -14.64,-42.997 q 66.710005,-0.021 133.421005,-0.088 c 6.937,-0.016 13.825,-0.94 20.092,-4.297 2.49,-1.335 3.982,-2.513 1.782,-6.024 -5.682,-9.068 -4.387,-18.575 -0.174,-27.924 1.269,-2.816 2.738,-2.686 4.863,-0.751 6.246,5.686 10.755,12.109 9.82,21.105 -0.607,1.525 -1.108,3.1 -1.835,4.563 a 183.377,183.377 0 0 1 -23.44,36.437 c -14.29,17.08 -31.715,28.898 -53.24,34.799 -7.969,2.184 -16.252,2.024 -24.226,3.941 -8.735,-4.24 -14.666,-11.48 -20.335005,-19 z m 13.168005,-20.313 a 7.148,7.148 0 0 0 -6.836,7.083 7.003,7.003 0 1 0 13.99,-0.423 6.955,6.955 0 0 0 -7.154,-6.66 z"
     id="path5" />
  <path
     d="m 119.30634,132.44031 c 7.974,-1.917 16.257,-1.757 24.227,-3.941 21.524,-5.9 38.95,-17.72 53.24,-34.8 a 183.377,183.377 0 0 0 23.438,-36.436 c 0.728,-1.463 1.23,-3.038 1.836,-4.563 6.785,-1.155 13.473,-2.468 20.48,-0.93 6.47,1.418 7.736,3.653 3.728,8.795 -5.284,6.779 -12.538,9.665 -20.892,9.055 -4.862,-0.355 -6.95,1.681 -8.774,5.79 -14.767,33.254 -40.479,52.773 -75.93,59.803 -4.165,0.826 -8.427,1.162 -12.643,1.725 -2.832,-1.637 -6.15,-2.333 -8.71,-4.498 z"
     class="cls-4"
     id="path6" />
  <path
     fill="#fdfefe"
     d="m 119.30634,132.44031 c 2.56,2.165 5.878,2.86 8.71,4.498 -18.712,2.172 -36.900005,1.13 -53.590005,-8.867 a 35.06,35.06 0 0 1 -8.871,-7.259 c 12.095,0.432 23.274,-1.286 33.415,-7.372 5.670005,7.52 11.601005,14.76 20.336005,19 z"
     id="path7" />
  <path
     fill="#0a99e6"
     d="m 148.51834,-0.83269047 c 10.88,0 10.88,0 10.88,9.90099997 0,9.0880005 0,9.0880005 -9.198,9.0880005 -12.604,0 -12.604,0 -12.6,-12.1150005 0.003,-6.87099997 0.003,-6.87199997 6.955,-6.87399997 z m -5.988,15.27200047 a 17.95,17.95 0 0 0 0.04,-11.5450005 c -1.48,3.821 -1.142,7.6840005 -0.04,11.5450005 z m 6.27,0 V 2.9133095 c -1.283,3.831 -1.646,7.6710005 0,11.5280005 z m 5.566,-11.5300005 c -0.937,3.866 -1.472,7.7340005 0.188,11.5070005 a 17.81,17.81 0 0 0 -0.187,-11.5070005 z m 19.683,62.8830005 c -10.646,0 -10.646,0 -10.646,-10.6 0,-8.388 0,-8.388 9.9,-8.389 11.9,0 11.922,0 11.89,11.856 -0.022,7.99 0.776,7.065 -7.18,7.131 -1.322,0.011 -2.643,0.002 -3.964,0.002 z m -5.615,-3.707 c 0.936,-3.88 1.458,-7.762 -0.17,-11.555 a 17.795,17.795 0 0 0 0.17,11.555 z m 5.955,0 c 0.935,-3.88 1.458,-7.762 -0.17,-11.555 a 17.795,17.795 0 0 0 0.17,11.555 z m 5.77,-11.539 c -0.935,3.869 -1.454,7.737 0.35,11.516 0.634,-3.849 1.292,-7.688 -0.35,-11.516 z m -31.753,15.246 c -10.806,0 -10.806,0 -10.806,-9.944 0,-9.044 0,-9.044 9.244,-9.045 12.559,0 12.559,0 12.553,12.19 -0.002,6.797 -0.002,6.797 -7.027,6.799 h -3.963 z m -5.705,-3.755 c 0.858,-3.855 1.305,-7.702 -0.352,-11.505 -0.601,3.85 -1.457,7.705 0.352,11.505 z m 5.888,0.001 a 18.682,18.682 0 0 0 -0.091,-11.539 c -1.136,3.874 -1.433,7.728 0.09,11.54 z m 5.864,0.033 a 19.795,19.795 0 0 0 0.077,-11.527 17.82,17.82 0 0 0 -0.077,11.527 z m -31.815,-15.268 c 10.957,0 10.957,0 10.956,10.32 0,8.669 0,8.669 -9.615,8.669 -12.186,0 -12.186,0 -12.182,-12.037 0.003,-6.949 0.003,-6.949 6.877,-6.951 h 3.964 z m -5.856,15.239 a 17.72,17.72 0 0 0 -0.046,-11.506 17.405,17.405 0 0 0 0.046,11.506 z m 6.109,0 c 0.51,-3.85 1.543,-7.736 -0.263,-11.513 a 16.927,16.927 0 0 0 0.263,11.513 z m 5.47,-11.543 v 11.531 a 15.132,15.132 0 0 0 0,-11.531 z m -31.586005,15.293 c -10.78,0 -10.832,0 -10.765,-10.961 0.057,-9.27 -1.185,-7.962 8.263,-8.01 13.533005,-0.069 13.317005,-0.012 13.629005,12.691 0.118,4.83 -0.913,7.232 -6.18,6.323 a 29.481,29.481 0 0 0 -4.947005,-0.043 z m -5.974,-15.251 c -0.649,3.842 -1.525,7.7 0.158,11.509 a 16.997,16.997 0 0 0 -0.158,-11.509 z m 6.179,11.544 c 0.935,-3.88 1.458,-7.762 -0.17,-11.555 a 17.795,17.795 0 0 0 0.17,11.555 z m 5.765005,-11.542 a 18.551,18.551 0 0 0 0.128,11.54 c 1.096,-3.878 1.412,-7.734 -0.128,-11.54 z m 19.929,-27.558 c 10.92,0 10.92,0 10.92,9.86 0,9.129 0,9.129 -9.651,9.129 -12.15,0 -12.15,0 -12.146,-12.074 0.003,-6.912 0.003,-6.912 6.914,-6.915 z m -6.033,3.752 c -0.858,3.865 -1.452,7.735 0.211,11.498 a 18.382,18.382 0 0 0 -0.211,-11.498 z m 6.163,11.47 c 0.843,-3.861 1.336,-7.724 -0.269,-11.508 -0.773,3.853 -1.242,7.687 0.27,11.508 z m 5.764,-11.477 c -0.937,3.869 -1.422,7.732 0.29,11.511 0.74,-3.854 1.167,-7.69 -0.29,-11.511 z m 20.057,-3.745 c 10.773,0 10.832,0 10.755,10.503 -0.071,9.806 1.318,8.413 -8.296,8.467 -13.498,0.076 -13.28,0.014 -13.595,-12.694 -0.12,-4.844 0.937,-7.219 6.188,-6.318 a 29.67,29.67 0 0 0 4.948,0.042 z m -6.082,15.23 a 17.757,17.757 0 0 0 0.013,-11.504 17.534,17.534 0 0 0 -0.013,11.504 z m 12.053,0.04 c 0.65,-3.853 1.472,-7.71 -0.127,-11.542 -1.47,3.82 -1.132,7.683 0.127,11.541 z m -6.056,-0.032 a 17.72,17.72 0 0 0 -0.047,-11.505 17.405,17.405 0 0 0 0.047,11.505 z m -77.593005,8.58 c 11.042,0 11.042,0 11.042,11.225 a 31.822,31.822 0 0 0 0.02,3.466 c 0.342,3.112 -0.716,4.532 -4.104,4.357 -4.612,-0.24 -9.252,-0.216 -13.867,-0.007 -3.143,0.143 -4.152,-1.169 -3.867,-4.079 0.128,-1.309 0.02,-2.64 0.02,-3.961 0,-11 0,-11 10.756,-11 z m -5.726,15.223 c 0.941,-3.866 1.392,-7.727 -0.274,-11.508 -0.77,3.852 -1.188,7.686 0.274,11.508 z m 5.937,0.021 c 0.978,-3.869 1.449,-7.732 -0.132,-11.518 a 17.696,17.696 0 0 0 0.132,11.518 z m 5.885,-0.014 a 17.757,17.757 0 0 0 0.013,-11.504 17.534,17.534 0 0 0 -0.013,11.504 z m 19.736,-20.059 c -10.784,0 -10.784,0 -10.784,-9.966 0,-9.023 0,-9.023 9.265,-9.023 12.546005,0 12.331005,0.006 12.641005,12.704 0.118,4.822 -0.9,7.24 -6.175,6.328 a 29.411,29.411 0 0 0 -4.947005,-0.043 z m -5.684,-3.755 c 0.858,-3.855 1.305,-7.702 -0.348,-11.505 -0.608,3.85 -1.462,7.705 0.348,11.505 z m 5.677,-11.487 c -0.696,3.84 -1.51,7.693 0.153,13 a 21.443,21.443 0 0 0 -0.153,-13 z m 6.288005,11.479 c 0.518,-3.846 1.503,-7.728 -0.416,-11.511 -0.747,3.844 -1.31,7.68 0.416,11.51 z"
     id="path8" />
  <path
     d="m 52.243335,70.67931 c 1.243,15.57 4.574,30.423 14.64,42.997 a 13.1,13.1 0 0 1 1.27,2.58 c -5.315,0.52 -8.676,-1.549 -11.477,-6.408 -6.17,-10.705 -8.445,-22.24 -9.409,-34.281 -0.317,-3.969 1.1,-5.512 4.976,-4.888 z"
     class="cls-4"
     id="path9" />
  <path
     d="m 142.53034,14.43931 c -1.102,-3.861 -1.44,-7.7240005 0.04,-11.5450005 a 17.95,17.95 0 0 1 -0.04,11.5450005 z m 6.269,10e-4 c -1.645,-3.857 -1.282,-7.6970005 0,-11.5280005 z m 5.567,-11.5310005 a 17.81,17.81 0 0 1 0.188,11.5070005 c -1.66,-3.773 -1.125,-7.6400005 -0.187,-11.5070005 z m 14.068,59.1760005 a 17.795,17.795 0 0 1 -0.17,-11.555 c 1.628,3.793 1.105,7.675 0.17,11.555 z m 5.955,0 a 17.795,17.795 0 0 1 -0.17,-11.555 c 1.628,3.793 1.105,7.675 0.17,11.555 z m 5.769,-11.539 c 1.643,3.828 0.985,7.667 0.35,11.516 -1.803,-3.779 -1.284,-7.647 -0.35,-11.516 z m -37.457,11.491 c -1.81,-3.8 -0.953,-7.655 -0.352,-11.505 1.657,3.803 1.21,7.65 0.352,11.505 z m 5.888,0.001 c -1.524,-3.811 -1.227,-7.665 -0.091,-11.539 a 18.682,18.682 0 0 1 0.09,11.54 z m 5.864,0.033 a 17.82,17.82 0 0 1 0.077,-11.527 19.795,19.795 0 0 1 -0.077,11.527 z m -37.671,-0.029 a 17.405,17.405 0 0 1 -0.046,-11.506 17.72,17.72 0 0 1 0.046,11.506 z m 6.109,0 a 16.927,16.927 0 0 1 -0.263,-11.513 c 1.806,3.777 0.774,7.663 0.263,11.513 z m 5.47,-11.543 a 15.132,15.132 0 0 1 0,11.531 z m -37.560005,0.042 a 16.997,16.997 0 0 1 0.158,11.509 c -1.683,-3.81 -0.807,-7.667 -0.158,-11.509 z m 6.179,11.544 a 17.795,17.795 0 0 1 -0.17,-11.555 c 1.628,3.793 1.105,7.675 0.17,11.555 z m 5.765005,-11.542 c 1.54,3.806 1.224,7.662 0.128,11.54 a 18.551,18.551 0 0 1 -0.128,-11.54 z m 13.896,-23.806 a 18.382,18.382 0 0 1 0.211,11.498 c -1.663,-3.763 -1.07,-7.633 -0.211,-11.498 z m 6.163,11.47 c -1.51,-3.82 -1.042,-7.655 -0.269,-11.508 1.605,3.784 1.112,7.647 0.27,11.508 z m 5.764,-11.477 c 1.457,3.82 1.03,7.657 0.29,11.511 -1.712,-3.779 -1.227,-7.642 -0.29,-11.511 z m 13.975,11.485 a 17.534,17.534 0 0 1 0.013,-11.504 17.757,17.757 0 0 1 -0.013,11.504 z m 12.053,0.04 c -1.26,-3.86 -1.597,-7.722 -0.127,-11.542 1.6,3.831 0.778,7.689 0.127,11.541 z m -6.056,-0.032 a 17.405,17.405 0 0 1 -0.047,-11.505 17.72,17.72 0 0 1 0.047,11.505 z m -83.319005,23.803 c -1.462,-3.822 -1.044,-7.656 -0.274,-11.508 1.666,3.781 1.215,7.642 0.274,11.508 z m 5.937,0.021 a 17.696,17.696 0 0 1 -0.132,-11.518 c 1.581,3.786 1.11,7.649 0.132,11.518 z m 5.885,-0.014 a 17.534,17.534 0 0 1 0.013,-11.504 17.757,17.757 0 0 1 -0.013,11.504 z m 14.053,-23.814 c -1.81,-3.8 -0.957,-7.655 -0.349,-11.505 1.653,3.803 1.206,7.65 0.348,11.505 z m 5.676,-11.487 a 21.443,21.443 0 0 1 0.153,13 c -1.662,-5.307 -0.849,-9.16 -0.153,-13 z m 6.288005,11.479 c -1.726,-3.832 -1.163,-7.667 -0.416,-11.511 1.919,3.783 0.934,7.665 0.416,11.51 z"
     class="cls-2"
     id="path10" />
  <path
     d="m 112.35234,96.40531 c 1.88,0.955 2.663,3.398 3.429,5.1 0.718,1.6 -1.872,2.865 -3.745,2.729 -2.536,-0.186 -3.644,-1.878 -3.444,-4.427 0.166,-2.121 1.202,-3.309 3.76,-3.402 z"
     class="cls-1"
     id="path11" />
</svg>

