<svg xmlns="http://www.w3.org/2000/svg" role="img" viewBox="-5.65 -5.65 293.54 245.79"><title>Docker CE logo</title><defs><style>.cls-1{fill:#0d71a8}.cls-2{fill:#0b70a6}.cls-4{fill:#0993de}</style></defs><path d="M113.29 23.9c7.107 0 14.226-.239 21.317.095 3.887.182 4.776-1.187 4.57-4.775-.294-5.107.1-10.252-.139-15.365-.146-3.14 1.022-3.91 3.981-3.835 7.434.188 14.88.225 22.31-.014 3.196-.103 3.83 1.048 3.8 3.973-.139 13.221.038 26.446-.132 39.667-.04 3.191.77 4.313 4.082 4.146 5.441-.274 10.938.296 16.35-.184 4.828-.43 5.82 1.485 5.522 5.787-.342 4.935.065 9.918-.136 14.868-.11 2.68.813 3.602 3.359 3.1 1.293-.254 2.6-.448 3.883-.744 6.832-1.576 6.689-1.54 4.717-7.83-3.619-11.54-1.283-22.113 5.483-31.941 1.34-1.946 2.291-1.505 3.945-.428 7.311 4.765 12.91 10.893 15.16 19.455.694 2.644 1.833 2.863 4.106 2.767 7.78-.327 15.52-.45 22.41 4.313 2.187 1.511 2.614 2.668 1.492 5.143-5.365 11.838-14.735 17.484-27.399 17.683-3.457.055-4.824 1.357-6.154 4.223-17.81 38.392-48.723 58.108-90.047 62.888-14.062 1.627-28.102 1.73-41.776-2.291-25.49-7.497-39.204-25.435-44.004-50.93a80.902 80.902 0 0 1-.958-17.776c.111-3.301 1.351-4.902 4.807-4.38.97.145 1.999-.103 2.969.043 3.805.572 5.274-.77 4.973-4.806-.368-4.931.086-9.919-.15-14.866-.152-3.165.696-4.402 4.083-4.242 5.772.27 11.574-.102 17.349.142 3.336.14 4.746-.681 4.51-4.313-.312-4.773.296-9.62-.182-14.364-.474-4.7 1.435-5.497 5.573-5.297 6.76.326 13.549.088 20.326.088zm20.377 118.688c4.216-.563 8.478-.899 12.643-1.725 35.451-7.03 61.163-26.549 75.93-59.803 1.825-4.109 3.912-6.145 8.774-5.79 8.354.61 15.608-2.276 20.892-9.055 4.008-5.142 2.742-7.377-3.728-8.796-7.006-1.537-13.695-.224-20.479.93.934-8.995-3.575-15.418-9.82-21.104-2.126-1.935-3.595-2.065-4.864.751-4.213 9.35-5.508 18.856.174 27.924 2.2 3.511.708 4.69-1.782 6.024-6.267 3.357-13.155 4.28-20.092 4.297q-66.71.156-133.42.088c-3.876-.624-5.294.92-4.977 4.888.964 12.042 3.24 23.576 9.41 34.281 2.8 4.86 6.16 6.929 11.476 6.407 9.107.932 17.618-1.374 25.832-4.969 2.704-1.183 4.43-1.14 4.985 2.154-10.141 6.086-21.32 7.804-33.415 7.372a35.06 35.06 0 0 0 8.872 7.259c16.688 9.996 34.877 11.039 53.589 8.867zm20.502-137.77h-3.963c-6.952.002-6.952.002-6.955 6.873-.004 12.115-.004 12.115 12.6 12.115 9.197 0 9.197 0 9.197-9.088 0-9.9 0-9.9-10.879-9.9zM179.7 71.442c1.321 0 2.643.01 3.964-.002 7.956-.066 7.158.859 7.18-7.131.032-11.856.01-11.856-11.89-11.856-9.9.001-9.9.001-9.9 8.388 0 10.601 0 10.601 10.646 10.601zm-25.642 0h3.963c7.025-.002 7.025-.002 7.027-6.799.006-12.19.006-12.19-12.553-12.19-9.243 0-9.243 0-9.243 9.045 0 9.944 0 9.944 10.806 9.944zm-25.77-18.989h-3.963c-6.874.003-6.874.003-6.876 6.952-.005 12.037-.005 12.037 12.182 12.037 9.614 0 9.614 0 9.615-8.67 0-10.319 0-10.319-10.957-10.319zm-25.861 18.989a29.482 29.482 0 0 1 4.947.043c5.267.909 6.298-1.493 6.18-6.323-.312-12.703-.096-12.76-13.63-12.691-9.447.048-8.205-1.26-8.262 8.01-.067 10.96-.016 10.961 10.765 10.961zm25.9-42.807h-3.964c-6.911.003-6.911.003-6.913 6.915-.005 12.074-.005 12.074 12.145 12.074 9.651 0 9.651 0 9.651-9.129 0-9.86 0-9.86-10.92-9.86zm25.95 0a29.67 29.67 0 0 1-4.948-.042c-5.251-.9-6.308 1.474-6.188 6.318.315 12.708.097 12.77 13.595 12.694 9.614-.055 8.225 1.34 8.296-8.467.077-10.502.018-10.503-10.755-10.503zm-77.68 23.818c-10.756 0-10.756 0-10.755 11 0 1.322.107 2.653-.02 3.962-.286 2.91.723 4.222 3.866 4.08 4.615-.21 9.255-.234 13.867.005 3.388.176 4.446-1.244 4.103-4.356a31.822 31.822 0 0 1-.02-3.466c.001-11.225.001-11.225-11.041-11.225zm25.832-4.83a29.412 29.412 0 0 1 4.947.044c5.276.913 6.293-1.506 6.175-6.328-.31-12.699-.095-12.704-12.641-12.704-9.265 0-9.265 0-9.265 9.023 0 9.966 0 9.966 10.784 9.966z" class="cls-1"/><path d="M38.874 191.262c0-6.605.08-12.52-.03-18.431-.064-3.481.436-6.675 4.71-6.575 4.289.1 4.482 3.437 4.463 6.823-.072 12.563.007 25.127-.04 37.69a23.743 23.743 0 0 1-17.033 22.985 24.333 24.333 0 0 1-27.556-10.586c-5.383-8.648-4.246-20.832 2.669-28.596a24.404 24.404 0 0 1 28.12-5.816c1.337.615 2.603 1.383 4.697 2.506zm-29.59 19.144a14.57 14.57 0 0 0 14.462 14.96 14.964 14.964 0 0 0 15.124-14.472c.19-7.892-6.586-14.91-14.613-15.133-7.883-.22-14.883 6.627-14.973 14.645zm195.501 4.899c3.826 9.432 13.266 12.777 21.281 8.07.568-.333 1.087-.747 1.638-1.107 2.496-1.634 5.082-2.048 6.97.637 2.02 2.87.7 5.23-1.833 7.199-13.064 10.15-33.466 2.89-37.618-13.412-3.266-12.824 4.485-26.095 17.097-29.274a24.064 24.064 0 0 1 29.7 17.717c1.903 8.046.219 10.168-8.085 10.17-9.572.003-19.144 0-29.15 0zm27.395-9.116a13.859 13.859 0 0 0-12.643-10.346c-5.273-.47-11.838 3.174-14.036 7.66-.882 1.799-.847 2.717 1.499 2.704 8.356-.046 16.712-.018 25.18-.018zm-73.87-2.433l22.116-14.316a33.505 33.505 0 0 1 2.922-1.852c2.688-1.368 5.162-1.306 6.804 1.6 1.538 2.721.352 4.74-1.998 6.279-4.554 2.982-9.057 6.052-13.72 8.856-2.436 1.465-2.805 2.516-.713 4.744 5.084 5.415 9.885 11.095 14.845 16.627 2.232 2.49 3.493 5.178.517 7.727-2.935 2.514-5.414.906-7.606-1.601-4.997-5.718-10.025-11.411-15.16-17.004-1.071-1.167-1.73-3.648-4.199-2.398-2.252 1.14-4.127 2.435-3.877 5.592.299 3.776.018 7.595.083 11.394.055 3.196-1.4 5.242-4.591 5.18-3.16-.062-4.548-2.193-4.545-5.327q.03-28.748-.004-57.495c-.005-3.336 1.329-5.597 4.836-5.49 3.257.101 4.344 2.323 4.32 5.444-.08 10.35-.03 20.702-.03 32.04z" class="cls-2"/><path d="M76.027 186.657a24.033 24.033 0 1 1-24.074 24.264 23.938 23.938 0 0 1 24.074-24.264zm.172 38.701a14.633 14.633 0 0 0 14.588-14.86 14.933 14.933 0 0 0-14.91-14.656c-8.003.136-14.925 7.155-14.76 14.969a14.929 14.929 0 0 0 15.082 14.547zm52.109-38.715a22.83 22.83 0 0 1 13.46 4.239c2.814 1.97 4.99 4.407 2.543 7.79-2.29 3.164-5.06 1.836-7.795.056-6.34-4.126-12.928-3.745-18.246.834a14.717 14.717 0 0 0 16.696 24.02 19.82 19.82 0 0 0 1.682-1.042c2.739-1.876 5.617-2.68 7.739.552 2.18 3.32-.105 5.502-2.677 7.364-12.968 9.39-32.487 2.52-36.855-12.974a24.026 24.026 0 0 1 23.453-30.839z" class="cls-1"/><path d="M255.847 191.247a24.967 24.967 0 0 1 21.246-3.765c3.237.852 6.168 2.421 5.055 6.482-1.053 3.838-3.925 3.465-7.165 2.658-11.27-2.807-19.531 3.863-19.575 15.594-.02 5.441-.078 10.884.023 16.324.064 3.45-1.005 6.096-4.809 6.029-3.57-.062-4.39-2.664-4.366-5.884.087-11.871.06-23.744.016-35.617-.01-2.776.07-5.478 3.414-6.242 3.493-.799 5.067 1.488 6.16 4.42z" class="cls-2"/><path fill="#099bea" d="M104.622 119.09c-.555-3.294-2.282-3.337-4.986-2.154-8.214 3.595-16.725 5.901-25.832 4.97a13.1 13.1 0 0 0-1.27-2.58c-10.066-12.574-13.397-27.427-14.64-42.997q66.71-.021 133.421-.088c6.937-.016 13.825-.94 20.092-4.297 2.49-1.335 3.982-2.513 1.782-6.024-5.682-9.068-4.387-18.575-.174-27.924 1.269-2.816 2.738-2.686 4.863-.751 6.246 5.686 10.755 12.109 9.82 21.105-.607 1.525-1.108 3.1-1.835 4.563a183.377 183.377 0 0 1-23.44 36.437c-14.29 17.08-31.715 28.898-53.24 34.799-7.969 2.184-16.252 2.024-24.226 3.941-8.735-4.24-14.666-11.48-20.335-19zm13.168-20.313a7.148 7.148 0 0 0-6.836 7.083 7.003 7.003 0 1 0 13.99-.423 6.955 6.955 0 0 0-7.154-6.66z"/><path d="M124.957 138.09c7.974-1.917 16.257-1.757 24.227-3.941 21.524-5.9 38.95-17.72 53.24-34.8a183.377 183.377 0 0 0 23.438-36.436c.728-1.463 1.23-3.038 1.836-4.563 6.785-1.155 13.473-2.468 20.48-.93 6.47 1.418 7.736 3.653 3.728 8.795-5.284 6.779-12.538 9.665-20.892 9.055-4.862-.355-6.95 1.681-8.774 5.79-14.767 33.254-40.479 52.773-75.93 59.803-4.165.826-8.427 1.162-12.643 1.725-2.832-1.637-6.15-2.333-8.71-4.498z" class="cls-4"/><path fill="#fdfefe" d="M124.957 138.09c2.56 2.165 5.878 2.86 8.71 4.498-18.712 2.172-36.9 1.13-53.59-8.867a35.06 35.06 0 0 1-8.871-7.259c12.095.432 23.274-1.286 33.415-7.372 5.67 7.52 11.601 14.76 20.336 19z"/><path fill="#0a99e6" d="M154.169 4.817c10.88 0 10.88 0 10.88 9.901 0 9.088 0 9.088-9.198 9.088-12.604 0-12.604 0-12.6-12.115.003-6.871.003-6.872 6.955-6.874h3.963zm-5.988 15.272a17.95 17.95 0 0 0 .04-11.545c-1.48 3.821-1.142 7.684-.04 11.545zm6.27 0V8.563c-1.283 3.831-1.646 7.671 0 11.528zm5.566-11.53c-.937 3.866-1.472 7.734.188 11.507a17.81 17.81 0 0 0-.187-11.507zM179.7 71.442c-10.646 0-10.646 0-10.646-10.6 0-8.388 0-8.388 9.9-8.389 11.9 0 11.922 0 11.89 11.856-.022 7.99.776 7.065-7.18 7.131-1.322.011-2.643.002-3.964.002zm-5.615-3.707c.936-3.88 1.458-7.762-.17-11.555a17.795 17.795 0 0 0 .17 11.555zm5.955 0c.935-3.88 1.458-7.762-.17-11.555a17.795 17.795 0 0 0 .17 11.555zm5.77-11.539c-.935 3.869-1.454 7.737.35 11.516.634-3.849 1.292-7.688-.35-11.516zm-31.753 15.246c-10.806 0-10.806 0-10.806-9.944 0-9.044 0-9.044 9.244-9.045 12.559 0 12.559 0 12.553 12.19-.002 6.797-.002 6.797-7.027 6.799h-3.963zm-5.705-3.755c.858-3.855 1.305-7.702-.352-11.505-.601 3.85-1.457 7.705.352 11.505zm5.888.001a18.682 18.682 0 0 0-.091-11.539c-1.136 3.874-1.433 7.728.09 11.54zm5.864.033a19.795 19.795 0 0 0 .077-11.527 17.82 17.82 0 0 0-.077 11.527zm-31.815-15.268c10.957 0 10.957 0 10.956 10.32 0 8.669 0 8.669-9.615 8.669-12.186 0-12.186 0-12.182-12.037.003-6.949.003-6.949 6.877-6.951h3.964zm-5.856 15.239a17.72 17.72 0 0 0-.046-11.506 17.405 17.405 0 0 0 .046 11.506zm6.109 0c.51-3.85 1.543-7.736-.263-11.513a16.927 16.927 0 0 0 .263 11.513zm5.47-11.543V67.68a15.132 15.132 0 0 0 0-11.531zm-31.586 15.293c-10.78 0-10.832 0-10.765-10.961.057-9.27-1.185-7.962 8.263-8.01 13.533-.069 13.317-.012 13.629 12.691.118 4.83-.913 7.232-6.18 6.323a29.481 29.481 0 0 0-4.947-.043zm-5.974-15.251c-.649 3.842-1.525 7.7.158 11.509a16.997 16.997 0 0 0-.158-11.509zm6.179 11.544c.935-3.88 1.458-7.762-.17-11.555a17.795 17.795 0 0 0 .17 11.555zm5.765-11.542a18.551 18.551 0 0 0 .128 11.54c1.096-3.878 1.412-7.734-.128-11.54zm19.929-27.558c10.92 0 10.92 0 10.92 9.86 0 9.129 0 9.129-9.651 9.129-12.15 0-12.15 0-12.146-12.074.003-6.912.003-6.912 6.914-6.915h3.963zm-6.033 3.752c-.858 3.865-1.452 7.735.211 11.498a18.382 18.382 0 0 0-.211-11.498zm6.163 11.47c.843-3.861 1.336-7.724-.269-11.508-.773 3.853-1.242 7.687.27 11.508zm5.764-11.477c-.937 3.869-1.422 7.732.29 11.511.74-3.854 1.167-7.69-.29-11.511zm20.057-3.745c10.773 0 10.832 0 10.755 10.503-.071 9.806 1.318 8.413-8.296 8.467-13.498.076-13.28.014-13.595-12.694-.12-4.844.937-7.219 6.188-6.318a29.67 29.67 0 0 0 4.948.042zm-6.082 15.23a17.757 17.757 0 0 0 .013-11.504 17.534 17.534 0 0 0-.013 11.504zm12.053.04c.65-3.853 1.472-7.71-.127-11.542-1.47 3.82-1.132 7.683.127 11.541zm-6.056-.032a17.72 17.72 0 0 0-.047-11.505 17.405 17.405 0 0 0 .047 11.505zm-77.593 8.58c11.042 0 11.042 0 11.042 11.225a31.822 31.822 0 0 0 .02 3.466c.342 3.112-.716 4.532-4.104 4.357-4.612-.24-9.252-.216-13.867-.007-3.143.143-4.152-1.169-3.867-4.079.128-1.309.02-2.64.02-3.961 0-11 0-11 10.756-11zm-5.726 15.223c.941-3.866 1.392-7.727-.274-11.508-.77 3.852-1.188 7.686.274 11.508zm5.937.021c.978-3.869 1.449-7.732-.132-11.518a17.696 17.696 0 0 0 .132 11.518zm5.885-.014a17.757 17.757 0 0 0 .013-11.504 17.534 17.534 0 0 0-.013 11.504zm19.736-20.059c-10.784 0-10.784 0-10.784-9.966 0-9.023 0-9.023 9.265-9.023 12.546 0 12.331.006 12.641 12.704.118 4.822-.9 7.24-6.175 6.328a29.411 29.411 0 0 0-4.947-.043zm-5.684-3.755c.858-3.855 1.305-7.702-.348-11.505-.608 3.85-1.462 7.705.348 11.505zm5.677-11.487c-.696 3.84-1.51 7.693.153 13a21.443 21.443 0 0 0-.153-13zm6.288 11.479c.518-3.846 1.503-7.728-.416-11.511-.747 3.844-1.31 7.68.416 11.51z"/><path d="M57.894 76.329c1.243 15.57 4.574 30.423 14.64 42.997a13.1 13.1 0 0 1 1.27 2.58c-5.315.52-8.676-1.549-11.477-6.408-6.17-10.705-8.445-22.24-9.409-34.281-.317-3.969 1.1-5.512 4.976-4.888z" class="cls-4"/><path d="M148.181 20.089c-1.102-3.861-1.44-7.724.04-11.545a17.95 17.95 0 0 1-.04 11.545zm6.269.001c-1.645-3.857-1.282-7.697 0-11.528zm5.567-11.531a17.81 17.81 0 0 1 .188 11.507c-1.66-3.773-1.125-7.64-.187-11.507zm14.068 59.176a17.795 17.795 0 0 1-.17-11.555c1.628 3.793 1.105 7.675.17 11.555zm5.955 0a17.795 17.795 0 0 1-.17-11.555c1.628 3.793 1.105 7.675.17 11.555zm5.769-11.539c1.643 3.828.985 7.667.35 11.516-1.803-3.779-1.284-7.647-.35-11.516zm-37.457 11.491c-1.81-3.8-.953-7.655-.352-11.505 1.657 3.803 1.21 7.65.352 11.505zm5.888.001c-1.524-3.811-1.227-7.665-.091-11.539a18.682 18.682 0 0 1 .09 11.54zm5.864.033a17.82 17.82 0 0 1 .077-11.527 19.795 19.795 0 0 1-.077 11.527zm-37.671-.029a17.405 17.405 0 0 1-.046-11.506 17.72 17.72 0 0 1 .046 11.506zm6.109 0a16.927 16.927 0 0 1-.263-11.513c1.806 3.777.774 7.663.263 11.513zm5.47-11.543a15.132 15.132 0 0 1 0 11.531zm-37.56.042A16.997 16.997 0 0 1 96.61 67.7c-1.683-3.81-.807-7.667-.158-11.509zm6.179 11.544a17.795 17.795 0 0 1-.17-11.555c1.628 3.793 1.105 7.675.17 11.555zm5.765-11.542c1.54 3.806 1.224 7.662.128 11.54a18.551 18.551 0 0 1-.128-11.54zm13.896-23.806a18.382 18.382 0 0 1 .211 11.498c-1.663-3.763-1.07-7.633-.211-11.498zm6.163 11.47c-1.51-3.82-1.042-7.655-.269-11.508 1.605 3.784 1.112 7.647.27 11.508zm5.764-11.477c1.457 3.82 1.03 7.657.29 11.511-1.712-3.779-1.227-7.642-.29-11.511zm13.975 11.485a17.534 17.534 0 0 1 .013-11.504 17.757 17.757 0 0 1-.013 11.504zm12.053.04c-1.26-3.86-1.597-7.722-.127-11.542 1.6 3.831.778 7.689.127 11.541zm-6.056-.032a17.405 17.405 0 0 1-.047-11.505 17.72 17.72 0 0 1 .047 11.505zM70.872 67.676c-1.462-3.822-1.044-7.656-.274-11.508 1.666 3.781 1.215 7.642.274 11.508zm5.937.021a17.696 17.696 0 0 1-.132-11.518c1.581 3.786 1.11 7.649.132 11.518zm5.885-.014a17.534 17.534 0 0 1 .013-11.504 17.757 17.757 0 0 1-.013 11.504zm14.053-23.814c-1.81-3.8-.957-7.655-.349-11.505 1.653 3.803 1.206 7.65.348 11.505zm5.676-11.487a21.443 21.443 0 0 1 .153 13c-1.662-5.307-.849-9.16-.153-13zm6.288 11.479c-1.726-3.832-1.163-7.667-.416-11.511 1.919 3.783.934 7.665.416 11.51z" class="cls-2"/><path d="M118.003 102.055c1.88.955 2.663 3.398 3.429 5.1.718 1.6-1.872 2.865-3.745 2.729-2.536-.186-3.644-1.878-3.444-4.427.166-2.121 1.202-3.309 3.76-3.402z" class="cls-1"/></svg>