<?xml version="1.0" encoding="UTF-8" standalone="no"?>
<svg width="444.36" height="512"
     viewBox="0 0 106.75164 123.00023"
     version="1.1"
     id="svg3"
     xmlns="http://www.w3.org/2000/svg"
>
  <defs
     id="defs3" />
  <g
     fill-rule="evenodd"
     clip-rule="evenodd"
     id="g3"
     transform="translate(-10.624082,-2.5007928)">
    <path
       fill="#386f9f"
       d="m 51.834,23.017 c 3.756,0 7.512,0.058 11.263,-0.04 0.995,-0.026 2.78,0.797 2.7,-1.271 -0.061,-1.683 -1.622,-1.074 -2.568,-1.089 -4.237,-0.067 -8.488,-0.228 -12.708,0.037 -3.003,0.187 -3.888,-0.953 -3.511,-3.707 0.13,-0.95 0.005,-1.934 0.025,-2.902 0.132,-6.446 1.69,-8.64 7.942,-10.23 6.888,-1.75 13.937,-1.692 20.806,-0.184 6.175,1.356 8.74,6.16 8.428,10.604 -0.38,5.423 -0.086,10.893 -0.091,16.343 -0.009,6.853 -3.55,10.49 -10.459,10.585 -5.69,0.078 -11.387,0.14 -17.074,-0.018 -6.778,-0.19 -11.75,5.44 -11.784,11.82 0,0.484 0.083,0.984 -0.013,1.451 -0.488,2.343 1.462,6.13 -1.022,6.826 -3.78,1.062 -8.206,1.062 -11.54,-2.311 -1.13,-1.14 -2.082,-2.417 -2.584,-3.893 -2.679,-7.865 -3.102,-15.83 -0.58,-23.818 1.572,-4.986 5.848,-8.087 11.145,-8.176 3.874,-0.065 7.749,-0.013 11.623,-0.013 z m 6.902,-11.12 C 58.574,9.994 57.551,8.605 55.44,8.547 c -2.309,-0.06 -3.502,1.336 -3.505,3.608 -0.002,2.106 1.145,3.455 3.241,3.516 2.303,0.067 3.418,-1.36 3.56,-3.774 z"
       id="path1" />
    <path
       fill="#ffcf46"
       d="m 80.824,61.572 c -4.24,0 -8.482,-0.037 -12.722,0.03 -0.955,0.012 -2.557,-0.592 -2.607,1.041 -0.056,1.852 1.663,1.37 2.755,1.381 4.24,0.053 8.484,0.098 12.723,-0.02 2.178,-0.06 3.067,0.357 3.23,2.925 0.737,11.625 -4.308,12.63 -13.613,14.745 -5.338,1.213 -11.061,0.57 -16.325,-1.788 -4.353,-1.947 -7.024,-4.753 -6.687,-10.007 0.334,-5.186 0.39,-10.439 -0.009,-15.62 -0.48,-6.253 3.41,-10.852 10.975,-10.854 5.09,-10e-4 10.214,-0.389 15.26,0.075 7.215,0.662 12.872,-5.592 13.12,-12.864 0.01,-0.241 -0.052,-0.5 0.01,-0.724 0.636,-2.235 -1.626,-5.557 1.4,-6.686 4.573,-1.705 9.73,0.087 12.066,3.557 2.945,4.369 3.343,9.51 3.819,14.53 0.515,5.411 -1.003,10.505 -3.276,15.386 -1.544,3.31 -4.14,4.91 -7.757,4.915 -4.12,0.003 -8.239,0 -12.36,0 -0.002,-0.008 -0.002,-0.015 -0.002,-0.022 z m -1.104,10.8 c -0.453,-2.066 -1.385,-3.476 -3.785,-3.535 -2.496,-0.06 -3.14,1.807 -3.127,3.474 0.014,1.772 0.508,3.952 3.21,3.748 2.246,-0.172 3.341,-1.563 3.702,-3.687 z"
       id="path2" />
    <path
       fill="#386f9f"
       d="m 14.129,114.849 c 0,2.582 0.117,5 -0.055,7.397 -0.074,1.034 1.066,2.98 -1.103,2.978 -1.912,0 -2.403,-1.522 -2.342,-3.361 0.117,-3.51 0.034,-7.027 0.034,-10.54 v -7.998 c 0,-4.82 1.293,-6.452 5.903,-7.45 4.286,-0.932 7.654,0.511 9.386,4.263 1.732,3.753 1.866,7.62 0.133,11.438 -1.708,3.762 -4.854,5.166 -8.884,4.051 -0.918,-0.25 -1.845,-0.467 -3.072,-0.778 z m 0,-9.448 c 0,1.33 0.18,2.686 -0.037,3.98 -0.502,2.991 1.408,3.728 3.66,4.26 2.227,0.526 3.754,-0.421 4.647,-2.383 1.501,-3.29 1.753,-6.683 0.613,-10.162 -1.012,-3.092 -3.349,-3.454 -6.077,-3.07 -2.694,0.383 -3.059,2.215 -2.824,4.48 0.1,0.955 0.018,1.93 0.018,2.895 z m 28.987,9.288 c -1.845,0.48 -3.447,0.992 -5.087,1.3 -3.59,0.671 -6.248,-1.3 -7.183,-4.894 -1.16,-4.448 -0.178,-8.879 -0.148,-13.317 0.013,-2.023 1.885,-1.234 3.18,-2.318 0,4.75 0.018,8.85 -0.006,12.947 -0.013,2.058 0.519,3.75 2.465,4.835 2.148,1.198 3.91,0.057 5.78,-0.712 1.34,-0.551 1.173,-1.676 1.175,-2.746 0.01,-3.872 -0.001,-7.74 0.012,-11.612 0.002,-0.955 -0.097,-2.122 1.313,-2.075 1.257,0.041 1.804,0.788 1.783,2.158 -0.091,6.407 0.09,12.823 -0.17,19.221 -0.197,4.838 -3.61,7.793 -8.52,8.01 -0.735,0.031 -1.505,0.099 -1.78,-0.813 -0.419,-1.404 0.718,-1.139 1.465,-1.378 5.401,-1.718 6.107,-2.744 5.721,-8.606 z M 65.94,98.064 c 1.429,-0.675 2.25,-1.293 3.153,-1.46 5.067,-0.937 8.95,-0.58 8.94,6.245 -0.007,3.515 0.002,7.031 -0.007,10.545 -0.002,0.984 0.061,1.942 -1.406,2.027 -1.547,0.092 -1.887,-0.793 -1.88,-2.006 0.018,-3.387 0.11,-6.774 0.107,-10.16 -0.002,-2.63 -0.539,-4.958 -3.884,-4.95 -2.934,0.005 -5.012,2.195 -5.027,5.217 a 899.58,899.58 0 0 0 0.003,9.814 c 0.003,1.162 0.028,2.181 -1.652,2.085 -1.513,-0.09 -1.327,-1.11 -1.327,-2.049 -0.01,-8.6 0.032,-17.209 -0.041,-25.815 -0.013,-1.508 0.582,-2.444 1.92,-2.508 1.888,-0.087 1.023,1.564 1.051,2.392 0.123,3.371 0.05,6.75 0.05,10.623 z m 15.99,7.711 c -0.191,-6.715 2.994,-10.3 8.76,-10.092 2.894,0.106 5.065,1.39 6.466,3.89 2.475,4.422 2.14,8.846 -0.538,12.987 -1.84,2.844 -4.67,4.185 -8.12,3.453 -3.402,-0.72 -6.066,-3.783 -6.548,-7.353 -0.128,-0.945 -0.02,-1.924 -0.02,-2.885 z m 13.32,0.157 c -0.152,-1.172 -0.125,-2.806 -0.613,-4.264 -0.667,-2 -1.883,-3.61 -4.364,-3.72 -2.503,-0.108 -3.752,1.355 -4.587,3.38 -1.311,3.179 -1.226,6.371 0.194,9.493 0.912,2.011 2.32,3.483 4.76,3.075 2.403,-0.401 3.821,-1.976 4.312,-4.313 0.223,-1.059 0.187,-2.168 0.298,-3.65 z m 7.007,0.895 c 0,-1.212 -0.023,-2.422 0.004,-3.628 0.056,-2.325 -0.685,-4.901 2.45,-6.089 3.59,-1.356 7.148,-2.372 10.762,-0.273 1.352,0.786 1.85,2.214 1.864,3.73 0.037,4.231 -0.019,8.464 0.038,12.695 0.02,1.476 -0.368,2.214 -2.027,2.174 -1.818,-0.043 -1.435,-1.283 -1.423,-2.273 0.043,-3.38 0.278,-6.757 0.214,-10.132 -0.084,-4.25 -2.416,-5.983 -6.389,-4.94 -1.648,0.434 -2.678,1.234 -2.597,3.274 0.161,3.982 0.037,7.978 0.052,11.967 0.004,1.156 0.021,2.18 -1.647,2.083 -1.528,-0.088 -1.278,-1.145 -1.29,-2.062 -0.028,-2.176 -0.008,-4.353 -0.011,-6.526 z M 58.689,97.403 c -0.25,0.296 -0.46,0.76 -0.68,0.764 -3.964,0.055 -2.864,3.014 -2.966,5.209 -0.097,2.045 0,4.1 -0.029,6.151 -0.03,2.038 0.147,3.932 2.627,4.473 0.711,0.154 1.035,0.564 0.887,1.274 -0.163,0.784 -0.788,0.753 -1.407,0.745 -2.85,-0.05 -4.963,-2.065 -5.047,-5.015 -0.086,-3.014 0.031,-6.035 -0.04,-9.046 -0.037,-1.43 0.706,-3.255 -1.6,-3.822 -0.253,-0.061 -0.343,-0.778 -0.508,-1.187 3.076,-0.965 1.8,-3.618 2.222,-5.631 0.2,-0.953 1.105,-1.214 1.96,-1.295 0.865,-0.082 0.872,0.618 0.9,1.203 0.114,2.32 -1.087,5.425 3.184,5.256 0.143,-0.005 0.31,0.562 0.497,0.92 z"
       id="path3" />
  </g>
</svg>

