<?xml version="1.0" encoding="UTF-8" standalone="no"?>
<svg width="337.59" height="512"
     viewBox="0 0 208.8 316.67126"
     version="1.1"
     id="svg1"
     xmlns="http://www.w3.org/2000/svg"
>
  <defs
     id="defs1" />
  <title
     id="title1">TraefikProxy-vertical-logo-color</title>
  <g
     id="TraefikProxy-vertical-logo-color"
     stroke="none"
     stroke-width="1"
     fill="none"
     fill-rule="evenodd"
     transform="translate(0,-0.96875)">
    <path
       d="m 105.82047,0.96875 c 8.25888,0 15.60022,5.8299675 15.60022,13.011142 0,7.180849 -6.99006,13.011142 -15.60022,13.011142 -0.98512,0 -2.27093,-0.161417 -3.85742,-0.484251 -1.23233,-0.250776 -2.513713,-0.04611 -3.606843,0.576093 L 42.42363,58.919242 c -1.248231,0.710483 -1.684641,2.299176 -0.974749,3.548446 0.233735,0.411329 0.575112,0.751086 0.987398,0.982714 l 60.632291,34.064043 c 1.57412,0.884362 3.49388,0.888419 5.07172,0.01072 l 60.96087,-33.910619 c 1.25514,-0.698192 1.7071,-2.282523 1.00949,-3.538703 -0.23187,-0.417513 -0.57408,-0.763099 -0.98915,-0.998892 L 150.10133,48.271917 c -1.57608,-0.895341 -3.50422,-0.904884 -5.08906,-0.02519 l -20.0796,11.145553 c -0.5065,0.281151 -0.83995,0.789894 -0.90158,1.358358 l -0.0103,0.19147 v 0 c 0,7.180849 -6.99005,13.011142 -15.60022,13.011142 -8.610165,0 -15.600535,-5.830293 -15.600535,-13.011142 0,-7.181175 6.99037,-13.011142 15.600535,-13.011142 0.31988,0 0.68717,0.01733 1.10188,0.05199 l 0.65762,0.06499 v 0 l 0.72874,0.09099 v 0 c 1.11127,0.151195 2.2416,-0.06122 3.22238,-0.605566 L 143.82581,31.0525 c 2.2739,-1.262113 5.01891,-1.303855 7.32223,-0.129757 l 0.31127,0.16764 41.46602,23.556523 c 5.199,2.95351 5.25872,10.381721 0.21884,13.449814 l -0.27996,0.162974 -27.73852,15.429082 c -1.25515,0.698158 -1.70715,2.282478 -1.00958,3.538677 0.24564,0.442347 0.61483,0.803411 1.06236,1.038983 l 27.47476,14.462274 c 5.45361,2.87063 5.58466,10.63884 0.23099,13.6921 l -83.4394,47.5865 c -2.39549,1.36617 -5.33365,1.36519 -7.72822,-0.003 L 18.751913,116.61549 C 13.391883,113.55385 13.539104,105.77 19.011066,102.91358 L 46.785511,88.413722 c 1.273175,-0.66467 1.766913,-2.236463 1.102796,-3.510698 -0.233518,-0.448048 -0.592332,-0.818354 -1.032633,-1.065703 L 18.747667,68.046985 C 13.549302,65.126492 13.436551,57.725757 18.433199,54.618063 l 0.277612,-0.1652 69.032835,-39.290616 c 1.092876,-0.622021 1.920651,-1.6174 2.335331,-2.79842 l 0.08849,-0.276364 v 0 C 92.590616,4.8662148 98.104924,0.96875 105.82047,0.96875 Z m 38.51981,95.846187 -34.09018,19.615893 -0.31314,0.17078 c -2.31758,1.196 -5.08847,1.15123 -7.37381,-0.13829 L 68.58174,97.290957 c -1.528506,-0.862386 -3.387755,-0.89177 -4.942575,-0.07811 L 44.051293,107.46344 c -1.270339,0.66478 -1.76302,2.23693 -1.100433,3.51148 0.230085,0.44259 0.582166,0.80947 1.014274,1.05689 l 59.846066,34.26808 c 1.59281,0.91205 3.54718,0.91268 5.14058,0.002 l 60.36296,-34.51182 c 1.24482,-0.71172 1.6789,-2.30115 0.96954,-3.55011 -0.24512,-0.43158 -0.60822,-0.78378 -1.0464,-1.015 L 149.33663,96.723339 c -1.57137,-0.829169 -3.45622,-0.794615 -4.99635,0.0916 z"
       id="Shape"
       fill="#24a1c1"
       fill-rule="nonzero" />
    <path
       d="m 177.6663,188 c 1.06076,0 1.9742,0.35417 2.74033,1.06237 0.74252,0.66108 1.13856,1.55347 1.18807,2.67719 l 0.005,0.24434 v 34.9841 l 20.11205,-18.13946 c 0.58473,-0.49708 1.20536,-0.77053 1.86191,-0.82025 L 203.79414,208 c 0.94502,0 1.77195,0.36344 2.48078,1.09019 0.73829,0.72683 1.10745,1.54084 1.10749,2.44202 -3e-5,0.74621 -0.29783,1.43131 -0.89339,2.05531 l -0.1698,0.16867 -16.08078,14.17245 17.58697,18.22795 c 0.64968,0.66865 0.97459,1.42451 0.97459,2.26759 0,0.9303 -0.38397,1.75884 -1.15179,2.48563 -0.73837,0.72679 -1.59482,1.09019 -2.56938,1.09019 -0.95986,0 -1.79237,-0.35094 -2.49752,-1.05281 l -0.16046,-0.1682 L 181.6,228.976 v 18.99584 c 0,1.1568 -0.35937,2.0951 -1.07806,2.81489 l -0.15951,0.1509 C 179.56684,251.64587 178.62393,252 177.5337,252 c -1.09024,0 -2.01843,-0.33937 -2.78453,-1.0181 -0.71504,-0.66104 -1.09639,-1.57914 -1.14406,-2.75431 L 173.6,247.97184 V 191.9839 c 0,-1.23939 0.39778,-2.21323 1.19337,-2.92153 C 175.61841,188.35417 176.57605,188 177.6663,188 Z m -16,19.2 c 1.06076,0 1.9742,0.36729 2.74033,1.10172 0.74252,0.68556 1.13856,1.61101 1.18807,2.77635 l 0.005,0.25339 v 36.49118 c 0,1.28535 -0.41254,2.31056 -1.23757,3.07564 -0.79559,0.73448 -1.7385,1.10172 -2.82873,1.10172 -1.09024,0 -2.01843,-0.35194 -2.78453,-1.05581 -0.71504,-0.68552 -1.09639,-1.63762 -1.14406,-2.85632 l -0.005,-0.26523 v -36.49118 c 0,-1.2853 0.39778,-2.29521 1.19337,-3.02974 0.82504,-0.73443 1.78268,-1.10172 2.87293,-1.10172 z m -10.74738,-19.2 -9.2e-4,0.003 0.0526,0.002 c 1.46697,0.0881 2.62943,1.30577 2.62943,2.79489 0,1.46262 -1.12146,2.66332 -2.55141,2.78912 l -0.17292,0.0109 h -4.15135 c -1.23966,6e-5 -2.20542,0.11676 -2.8973,0.35011 -0.69191,0.20429 -1.31173,0.76096 -1.85945,1.51947 -0.51894,0.72945 -0.70633,2.11472 -0.90811,3.5151 -0.16146,1.27989 -0.24756,2.9918 -0.25831,5.13573 l -10e-4,0.46602 -0.001,2.61257 7.201,10e-4 c 1.32548,0 2.4,1.07452 2.4,2.4 0,1.32548 -1.07452,2.4 -2.4,2.4 l -7.2,-0.001 v 35.97284 c 0,1.1568 -0.35937,2.0951 -1.07806,2.81489 l -0.15951,0.1509 C 138.76684,251.64587 137.82393,252 136.7337,252 c -1.09024,0 -2.01843,-0.33937 -2.78453,-1.0181 -0.71504,-0.66104 -1.09639,-1.57914 -1.14406,-2.75431 L 132.8,247.97184 V 211.999 L 126.4,212 c -1.32548,0 -2.4,-1.07452 -2.4,-2.4 0,-1.32548 1.07452,-2.4 2.4,-2.4 l 6.399,-10e-4 0.001,-4.75699 c 0,-5.22241 1.09548,-8.92773 3.28649,-11.11597 2.11272,-2.13811 5.00284,-3.24543 8.67037,-3.3218 L 145.16757,188 Z m -47.25366,19.2 c 4.16801,0 8.04221,1.07407 10.93014,3.02422 2.2906,1.54682 4.15144,3.92966 4.90316,6.27865 0.43163,1.3487 0.49724,1.84707 0.50134,3.80603 0.002,1.2189 -0.0307,2.04107 -0.0976,2.42201 -0.67586,3.85017 -2.28571,6.51749 -5.07997,8.41679 -2.24795,1.52794 -5.07118,2.422 -8.7636,2.77514 -1.85874,0.17777 -5.25837,0.16098 -7.46072,-0.0369 -1.869112,-0.1679 -4.164262,-0.46335 -5.143372,-0.66203 -0.819553,-0.16633 -3.626044,-0.64267 -3.649152,-0.61935 -0.01018,0.0104 -0.143714,0.86361 -0.296713,1.89638 -0.244287,1.649 -0.278892,2.06046 -0.284018,3.37711 l 2.49e-4,0.64639 c 0.0062,0.79381 0.04279,1.04298 0.171879,1.54495 0.510919,1.98663 1.636846,3.31553 3.679564,4.34288 2.009481,1.01064 4.116057,1.44798 7.299053,1.5154 1.4092,0.0301 2.13087,0.009 3.0125,-0.0857 2.13723,-0.23036 3.11113,-0.48311 5.95059,-1.54424 0.70721,-0.26433 1.42896,-0.50483 1.60389,-0.53448 0.37487,-0.0635 1.07401,0.0677 1.48147,0.2781 0.73547,0.3797 1.35339,1.39237 1.34954,2.21158 -0.004,0.95705 -0.3218,1.53674 -1.2539,2.29061 -2.22867,1.80254 -5.07426,2.90796 -8.47111,3.29081 -1.21127,0.13655 -3.9768,0.15667 -5.312612,0.0387 -3.761884,-0.33214 -6.373684,-0.98621 -8.760573,-2.19374 -1.862428,-0.94222 -3.283403,-2.11113 -4.3447,-3.57405 -0.20862,-0.28758 -0.39211,-0.53906 -0.462262,-0.63382 l -0.02998,-0.0398 v 0 c -0.01,-0.011 -0.183303,0.1966 -0.385214,0.46134 -0.892497,1.17032 -2.257312,2.42823 -3.591069,3.3098 -1.925479,1.27268 -4.689705,2.24357 -7.486732,2.62968 -0.834141,0.11509 -3.601689,0.21006 -4.311361,0.14788 -4.901986,-0.4296 -8.647768,-1.9327 -11.37222,-4.56347 -2.771903,-2.67667 -3.961288,-6.16633 -3.491897,-10.2454 0.540151,-4.69407 2.734502,-8.00892 6.58177,-9.94277 2.965175,-1.49048 5.923246,-2.05744 10.740579,-2.0586 3.422686,-0.001 6.290694,0.28344 10.664941,1.05706 1.081621,0.1913 2.01806,0.34791 2.08098,0.34804 0.0915,0 0.164061,-0.34993 0.362523,-1.74902 0.35908,-2.53137 0.423438,-3.40484 0.325611,-4.41885 -0.113868,-1.18035 -0.262476,-1.74255 -0.702368,-2.6573 -1.134961,-2.36007 -3.82917,-3.80404 -8.155596,-4.371 -1.23732,-0.16214 -4.092978,-0.18483 -5.332471,-0.0424 -2.07664,0.23867 -3.235478,0.54277 -5.819909,1.52715 -1.512025,0.57593 -1.518936,0.57771 -2.122066,0.54172 -1.036845,-0.0618 -1.744664,-0.53896 -2.198655,-1.48224 -0.186969,-0.38844 -0.219845,-0.5488 -0.219852,-1.0722 0,-0.78574 0.201301,-1.20286 0.90224,-1.86939 1.57184,-1.49473 4.216902,-2.76764 6.886556,-3.31417 1.709404,-0.34994 2.550866,-0.42351 4.803004,-0.41999 2.330386,0.006 3.820494,0.1374 5.891435,0.52886 3.444596,0.65104 6.060124,1.79859 8.032385,3.5241 0.585202,0.51197 1.46763,1.51964 1.845745,2.10764 0.115569,0.17974 0.234624,0.32681 0.264558,0.32681 0.02995,0 0.221128,-0.21596 0.424866,-0.47985 2.986432,-3.86845 8.016279,-6.05808 13.909144,-6.05501 z m -50.08919,0 c 0.996738,0 1.775469,0.35842 2.336179,1.07512 0.591803,0.7168 0.887751,1.553 0.887751,2.50863 0,0.89597 -0.264802,1.67245 -0.7943,2.32943 -0.529565,0.6272 -1.292719,0.94077 -2.289464,0.94073 -4.205151,4e-5 -7.075802,1.0453 -9.411961,3.13578 -2.249738,2.04039 -3.449397,4.74927 -3.503722,8.12667 L 40.8,247.82264 c 0,1.28535 -0.412542,2.31056 -1.237568,3.07564 C 38.766836,251.63276 37.823927,252 36.733704,252 c -1.090248,0 -2.018429,-0.35194 -2.78453,-1.05581 -0.736654,-0.70623 -1.119142,-1.69541 -1.147474,-2.96753 L 32.8,247.82264 v -36.49118 c 0,-1.2853 0.397782,-2.29521 1.193371,-3.02974 0.825039,-0.73443 1.782677,-1.10172 2.872925,-1.10172 1.06076,0 1.974207,0.36729 2.740333,1.10172 0.763741,0.70515 1.16091,1.66408 1.191461,2.87682 l 0.0019,0.15292 v 5.63054 l 0.116542,-0.38991 c 0.812264,-2.60313 2.330871,-4.78642 4.555822,-6.54989 C 47.839675,208.14078 50.27424,207.2 53.57607,207.2 Z M 12.340334,194.4 c 0.9812,0 1.829819,0.3178 2.545854,0.95341 C 15.628713,196.0155 16,196.9027 16,198.01502 L 15.999,207.199 24.8,207.2 c 1.270255,0 2.310021,0.98684 2.394463,2.23568 L 27.2,209.6 c 0,1.27025 -0.986839,2.31002 -2.235681,2.39446 L 24.8,212 15.999,211.999 16,235.41357 l 0.0011,0.46602 c 0.01075,2.14393 0.09685,3.85583 0.258306,5.13573 0.201787,1.40038 0.389175,2.78565 0.908113,3.51509 0.547726,0.75852 1.167544,1.31519 1.859455,1.51948 0.628975,0.21214 1.484307,0.32787 2.566,0.3472 l 0.331299,0.003 h 4.151351 c 1.511655,0.0413 2.724326,1.27906 2.724326,2.8 0,1.43185 -1.074762,2.61268 -2.461566,2.77975 l -0.167866,0.0151 -0.05257,0.002 9.22e-4,0.003 h -5.751356 l -0.410703,-0.004 c -3.667529,-0.0764 -6.557652,-1.18369 -8.670376,-3.3218 -2.1246096,-2.12193 -3.2190881,-5.67039 -3.2834691,-10.64539 L 8,237.55799 7.999,211.999 2.4,212 c -1.2702549,0 -2.31002124,-0.98684 -2.39446313,-2.23568 L 0,209.6 c 0,-1.27026 0.98683903,-2.31002 2.2356813,-2.39446 L 2.4,207.2 8.165,207.199 8.8,198.01502 c -5.7e-6,-1.16528 0.3447484,-2.06573 1.0342564,-2.70134 C 10.523747,194.70456 11.35911,194.4 12.340334,194.4 Z m 60.120975,36.6312 c -2.978413,0.17088 -4.192608,0.43718 -5.980834,1.31185 -0.916109,0.44806 -1.548407,0.93431 -2.048701,1.57538 -0.717759,0.91982 -1.150992,1.83387 -1.452972,3.06551 -0.219755,0.89624 -0.24218,3.24298 -0.03822,3.99908 0.34358,1.27366 0.751444,1.99453 1.668585,2.94904 1.255856,1.30698 2.911392,2.17887 4.964924,2.61485 1.05005,0.22295 1.018974,0.22078 2.777137,0.19367 1.275728,-0.0198 1.753033,-0.0565 2.274919,-0.17486 2.215571,-0.50289 4.189971,-1.6364 5.623294,-3.22825 1.307446,-1.452 2.379823,-3.62727 2.970003,-6.0244 0.332678,-1.3513 0.885669,-5.11217 0.763088,-5.18973 -0.04838,-0.0307 -0.340623,-0.0791 -0.649359,-0.10768 -0.231557,-0.0216 -0.784471,-0.0868 -1.369978,-0.16085 l -0.391998,-0.0503 c -0.06508,-0.008 -0.129772,-0.017 -0.193678,-0.0254 -4.555092,-0.60338 -7.349585,-0.83781 -8.916212,-0.74786 z m 27.781401,-18.04593 c -1.622139,0.30467 -2.993323,0.86 -4.202651,1.70199 -2.234266,1.55562 -3.776215,3.90058 -4.63486,7.04853 -0.337269,1.23649 -0.427176,1.7111 -0.727877,3.84249 l -0.277379,1.96612 0.371559,0.0421 c 1.122204,0.12809 3.652746,0.4435 5.122378,0.63851 0.924582,0.12268 2.059301,0.25359 2.521594,0.29096 1.23364,0.0997 3.370186,0.0988 4.722416,0.004 l 0.32075,-0.0255 v 4.2e-4 c 1.84551,-0.16763 2.98028,-0.46256 4.37452,-1.13682 1.15958,-0.56085 1.83356,-1.13405 2.47135,-2.10185 0.93897,-1.42489 1.30461,-2.77332 1.2954,-4.77676 -0.007,-1.42796 -0.12445,-2.02198 -0.60333,-3.04714 -1.06998,-2.29049 -3.58351,-3.93115 -6.88012,-4.49087 -0.82262,-0.13964 -3.03055,-0.11484 -3.87375,0.0434 z M 161.64102,188 c 1.42221,0 2.57093,0.39282 3.44616,1.17828 0.8752,0.76023 1.31282,1.77381 1.31282,3.04072 0,1.24168 -0.43762,2.25526 -1.31282,3.04073 -0.87523,0.76023 -2.03762,1.14027 -3.48718,1.14027 -1.44958,0 -2.61198,-0.38004 -3.48718,-1.14027 C 157.2376,194.47426 156.8,193.46068 156.8,192.219 c 0,-1.24157 0.4376,-2.25515 1.31282,-3.04072 0.90256,-0.78546 2.07862,-1.17828 3.5282,-1.17828 z"
       id="Combined-Shape"
       fill="#ffffff"
       fill-rule="nonzero" />
    <path
       d="m 32.8,317.64 c 0.426667,0 0.757333,-0.128 0.992,-0.384 0.234667,-0.256 0.352,-0.61867 0.352,-1.088 v 0 -16.64 c 0.938667,2.176 2.336,3.84 4.192,4.992 1.856,1.152 4.085333,1.728 6.688,1.728 2.730667,0 5.141333,-0.66133 7.232,-1.984 2.090667,-1.32267 3.712,-3.18933 4.864,-5.6 1.152,-2.41067 1.728,-5.216 1.728,-8.416 0,-3.24267 -0.576,-6.08 -1.728,-8.512 -1.152,-2.432 -2.773333,-4.32 -4.864,-5.664 -2.090667,-1.344 -4.501333,-2.016 -7.232,-2.016 -2.602667,0 -4.832,0.56533 -6.688,1.696 -1.856,1.13067 -3.253333,2.76267 -4.192,4.896 v 0 -5.056 c 0,-0.42667 -0.117333,-0.768 -0.352,-1.024 -0.234667,-0.256 -0.565333,-0.384 -0.992,-0.384 -0.426667,0 -0.757333,0.128 -0.992,0.384 -0.234667,0.256 -0.352,0.59733 -0.352,1.024 v 0 40.576 c 0,0.98133 0.448,1.472 1.344,1.472 z m 12.16,-14.016 c -3.456,0 -6.122667,-1.17333 -8,-3.52 -1.877333,-2.34667 -2.816,-5.67467 -2.816,-9.984 0,-4.30933 0.938667,-7.62667 2.816,-9.952 1.877333,-2.32533 4.565333,-3.488 8.064,-3.488 3.413333,0 6.08,1.19467 8,3.584 1.92,2.38933 2.88,5.71733 2.88,9.984 0,4.26667 -0.96,7.56267 -2.88,9.888 -1.92,2.32533 -4.608,3.488 -8.064,3.488 z m 24,2.496 c 0.426667,0 0.757333,-0.128 0.992,-0.384 0.234667,-0.256 0.352,-0.61867 0.352,-1.088 v 0 -17.472 c 0,-2.60267 0.789333,-4.90667 2.368,-6.912 1.578667,-2.00533 3.925333,-3.15733 7.04,-3.456 v 0 l 1.92,-0.192 c 0.896,-0.128 1.344,-0.55467 1.344,-1.28 0,-0.384 -0.096,-0.672 -0.288,-0.864 -0.192,-0.192 -0.544,-0.288 -1.056,-0.288 v 0 h -0.448 l -0.896,0.064 c -4.821333,0.34133 -8.149333,2.34667 -9.984,6.016 v 0 -4.608 c 0,-0.46933 -0.128,-0.832 -0.384,-1.088 -0.256,-0.256 -0.576,-0.384 -0.96,-0.384 -0.896,0 -1.344,0.49067 -1.344,1.472 v 0 28.992 c 0,0.46933 0.117333,0.832 0.352,1.088 0.234667,0.256 0.565333,0.384 0.992,0.384 z m 31.232,0.128 c 2.73067,0 5.14133,-0.66133 7.232,-1.984 2.09067,-1.32267 3.712,-3.2 4.864,-5.632 1.152,-2.432 1.728,-5.26933 1.728,-8.512 0,-3.2 -0.576,-6.016 -1.728,-8.448 -1.152,-2.432 -2.77333,-4.30933 -4.864,-5.632 -2.09067,-1.32267 -4.50133,-1.984 -7.232,-1.984 -2.730667,0 -5.141333,0.66133 -7.232,1.984 -2.090667,1.32267 -3.712,3.2 -4.864,5.632 -1.152,2.432 -1.728,5.248 -1.728,8.448 0,3.24267 0.576,6.08 1.728,8.512 1.152,2.432 2.773333,4.30933 4.864,5.632 2.090667,1.32267 4.501333,1.984 7.232,1.984 z m -0.064,-2.624 c -3.456,0 -6.133333,-1.16267 -8.032,-3.488 -1.898667,-2.32533 -2.848,-5.664 -2.848,-10.016 0,-4.224 0.970667,-7.52 2.912,-9.888 1.941333,-2.368 4.618667,-3.552 8.032,-3.552 3.41333,0 6.09067,1.184 8.032,3.552 1.94133,2.368 2.912,5.664 2.912,9.888 0,4.352 -0.94933,7.69067 -2.848,10.016 -1.89867,2.32533 -4.61867,3.488 -8.16,3.488 z m 46.016,2.368 c 0.34133,0 0.64,-0.128 0.896,-0.384 0.256,-0.256 0.384,-0.576 0.384,-0.96 0,-0.384 -0.14933,-0.74667 -0.448,-1.088 v 0 l -11.712,-13.632 11.392,-13.312 c 0.29867,-0.34133 0.448,-0.704 0.448,-1.088 0,-0.384 -0.13867,-0.704 -0.416,-0.96 -0.27733,-0.256 -0.58667,-0.384 -0.928,-0.384 -0.384,0 -0.74667,0.192 -1.088,0.576 v 0 L 133.536,287.944 122.4,274.76 c -0.34133,-0.384 -0.704,-0.576 -1.088,-0.576 -0.34133,0 -0.64,0.128 -0.896,0.384 -0.256,0.256 -0.384,0.576 -0.384,0.96 0,0.384 0.14933,0.74667 0.448,1.088 v 0 l 11.328,13.312 -11.712,13.632 c -0.29867,0.34133 -0.448,0.704 -0.448,1.088 0,0.384 0.128,0.704 0.384,0.96 0.256,0.256 0.55467,0.384 0.896,0.384 0.384,0 0.768,-0.192 1.152,-0.576 v 0 l 11.456,-13.504 11.52,13.504 c 0.34133,0.384 0.704,0.576 1.088,0.576 z m 14.912,11.52 c 0.512,0 0.896,-0.256 1.152,-0.768 v 0 l 18.368,-40.704 c 0.0853,-0.256 0.128,-0.448 0.128,-0.576 0,-0.384 -0.128,-0.69333 -0.384,-0.928 -0.256,-0.23467 -0.55467,-0.352 -0.896,-0.352 -0.55467,0 -0.96,0.29867 -1.216,0.896 v 0 l -12.16,27.328 -0.128,0.32 -12.352,-27.84 c -0.256,-0.512 -0.61867,-0.768 -1.088,-0.768 -0.384,0 -0.72533,0.128 -1.024,0.384 -0.29867,0.256 -0.448,0.576 -0.448,0.96 0,0.128 0.0427,0.32 0.128,0.576 v 0 l 13.44,29.696 -4.608,10.112 -0.128,0.512 c 0,0.34133 0.11733,0.61867 0.352,0.832 0.23467,0.21333 0.52267,0.32 0.864,0.32 z"
       id="proxy"
       fill="#ffffff"
       fill-rule="nonzero" />
  </g>
</svg>

