<svg height="2159" viewBox="14.658 16.443 519.65 447.238" width="2500" xmlns="http://www.w3.org/2000/svg"><path d="m495.558 438.556c12.25 1 22.25-1.625 22.25-1.625v-77h16.5v88.625c-12.833 2.875-50.417 15.125-67.125-9.5-6.806-11.791-6.75-25.125-6.75-25.125v-54h17.25s-.031 46.277-.062 54.251c0 14.333 6.576 24.374 17.937 24.374zm-49.667-2.371s-3.416 3.354-17 4.5c-14 0-17.25-11.896-17.167-17.168v-47.166h34.167v-13.666h-34.167v-28.668l-16.666 3.334v84s.583 18.084 7.833 25.334 19.334 13 46.667 3.5c-2.386-10.138-3.667-14-3.667-14zm-106.215-65.333c-12.25-1-22.25 1.625-22.25 1.625v77h-16.5v-88.625c12.833-2.875 50.417-15.125 67.125 9.5 6.806 11.791 6.75 25.125 6.75 25.125v54h-17.25s.031-46.277.062-54.251c-.001-14.333-6.577-24.374-17.937-24.374zm-99.845 67.704c12.25 1 22.25-1.625 22.25-1.625v-77h16.5v88.625c-12.833 2.875-50.417 15.125-67.125-9.5-6.806-11.791-6.75-25.125-6.75-25.125v-54h17.25s-.031 46.277-.062 54.251c.001 14.333 6.577 24.374 17.937 24.374zm-115.503-.44v-56.375s3.625-7.125 19.75-7.125 18.375 4.75 20.25 6.875 6 6.25 6 21.75c.375 17.75-3.375 37.25-27.5 37.25-14.578 0-17.266-.609-18.5-2.375zm-16.687 11.547s11 5.5 33.5 5.5 46.75-12.5 46.75-49.25-28.101-47-40.55-47-23.012 7.25-23.012 7.25v-48.25l-16.688 2.5zm-57.802-11.107c12.25 1 22.25-1.625 22.25-1.625v-77h16.5v88.625c-12.833 2.875-50.417 15.125-67.125-9.5-6.806-11.791-6.75-25.125-6.75-25.125v-54h17.25s-.031 46.277-.062 54.251c.001 14.333 6.577 24.374 17.937 24.374z"/><path d="m159.956 153.944c0 75.938 61.56 137.498 137.5 137.498 75.938.002 137.5-61.559 137.5-137.498s-61.562-137.5-137.499-137.5c-75.941-.001-137.501 61.561-137.501 137.5z" fill="#de4815"/><g fill="#fff"><path d="m223.458 132.896a26.852 26.852 0 0 1 8.814 9.231c7.3 12.645 3.214 28.718-9.072 36.389a80.095 80.095 0 0 0 7.514 17.591c6.752 11.695 14.153 19.887 24.848 26.594l13.779-23.867c-6.65-4.357-10.564-9.12-14.811-16.477-14.498-25.11-5.893-57.219 19.216-71.717l-13.75-23.816c-18.317 10.578-30.851 27.309-36.538 46.072zm135.153-31.26-.268-.151-.206.358.206-.358-.154-.087c-.416.271-.838.535-1.272.786-12.92 7.46-29.426 3.036-36.884-9.884-2.706-4.687-3.865-9.459-3.605-14.487-15.533-3.266-32.075-1.926-47.452 4.565l13.912 24.097c23.303-8.06 49.788 1.235 62.575 23.383a52.248 52.248 0 0 1 7.025 25.224h27.456c.012-.051.03-.099.049-.146-.178-13.215-3.636-26.568-10.714-38.829a80.193 80.193 0 0 0 -10.668-14.471zm-80.72 102.39-13.669 23.676c18.499 9.503 39.571 11.171 60.042 4.633.303-9.007 5.108-17.658 13.491-22.498 7.328-4.23 15.811-4.639 23.141-1.841 10.42-12.229 16.797-27.245 18.582-42.915h-27.759c-2.576 14.799-11.444 28.394-25.472 36.492-15.677 9.052-33.131 9.629-48.258 2.284"/><path d="m341.335 216.098c9.807-5.661 22.335-2.306 27.996 7.5 5.66 9.808 2.307 22.337-7.502 27.996-9.806 5.661-22.335 2.308-27.994-7.501-5.663-9.807-2.306-22.335 7.5-27.995zm-6.598-157.747c9.807-5.66 22.334-2.305 27.995 7.499 5.659 9.809 2.307 22.338-7.501 27.996-9.807 5.662-22.335 2.309-27.996-7.5-5.661-9.804-2.306-22.334 7.502-27.995zm-137.743 79.731c9.808-5.661 22.336-2.306 27.997 7.499 5.659 9.809 2.306 22.338-7.502 27.996-9.805 5.662-22.334 2.309-27.994-7.5-5.664-9.806-2.307-22.336 7.499-27.995z"/></g></svg>