<?xml version="1.0" encoding="UTF-8" standalone="no"?>
<svg width="608.46" height="512"
     viewBox="14.658 16.443 519.59403 437.22255"
     version="1.1"
     id="svg4"
     xmlns="http://www.w3.org/2000/svg"
>
  <defs
     id="defs4" />
  <path
     d="m 495.50201,437.78913 c 12.25,1 22.25,-1.625 22.25,-1.625 v -77 h 16.5 v 88.625 c -12.833,2.875 -50.417,15.125 -67.125,-9.5 -6.806,-11.791 -6.75,-25.125 -6.75,-25.125 v -54 h 17.25 c 0,0 -0.031,46.277 -0.062,54.251 0,14.333 6.576,24.374 17.937,24.374 z m -49.667,-2.371 c 0,0 -3.416,3.354 -17,4.5 -14,0 -17.25,-11.896 -17.167,-17.168 v -47.166 h 34.167 v -13.666 h -34.167 v -28.668 l -16.666,3.334 v 84 c 0,0 0.583,18.084 7.833,25.334 7.25,7.25 19.334,13 46.667,3.5 -2.386,-10.138 -3.667,-14 -3.667,-14 z m -106.215,-65.333 c -12.25,-1 -22.25,1.625 -22.25,1.625 v 77 h -16.5 v -88.625 c 12.833,-2.875 50.417,-15.125 67.125,9.5 6.806,11.791 6.75,25.125 6.75,25.125 v 54 h -17.25 c 0,0 0.031,-46.277 0.062,-54.251 -10e-4,-14.333 -6.577,-24.374 -17.937,-24.374 z m -99.845,67.704 c 12.25,1 22.25,-1.625 22.25,-1.625 v -77 h 16.5 v 88.625 c -12.833,2.875 -50.417,15.125 -67.125,-9.5 -6.806,-11.791 -6.75,-25.125 -6.75,-25.125 v -54 h 17.25 c 0,0 -0.031,46.277 -0.062,54.251 0.001,14.333 6.577,24.374 17.937,24.374 z m -115.503,-0.44 v -56.375 c 0,0 3.625,-7.125 19.75,-7.125 16.125,0 18.375,4.75 20.25,6.875 1.875,2.125 6,6.25 6,21.75 0.375,17.75 -3.375,37.25 -27.5,37.25 -14.578,0 -17.266,-0.609 -18.5,-2.375 z m -16.687,11.547 c 0,0 11,5.5 33.5,5.5 22.5,0 46.75,-12.5 46.75,-49.25 0,-36.75 -28.101,-47 -40.55,-47 -12.449,0 -23.012,7.25 -23.012,7.25 v -48.25 l -16.688,2.5 z m -57.801995,-11.107 c 12.25,1 22.25,-1.625 22.25,-1.625 v -77 h 16.5 v 88.625 c -12.833,2.875 -50.417,15.125 -67.125,-9.5 -6.806,-11.791 -6.75,-25.125 -6.75,-25.125 v -54 h 17.25 c 0,0 -0.031,46.277 -0.062,54.251 10e-4,14.333 6.577,24.374 17.937,24.374 z"
     id="path1"
     style="fill:#ffffff;fill-opacity:1;stroke-width:1.00001;stroke-dasharray:none" />
  <path
     d="m 159.90001,153.17713 c 0,75.938 61.56,137.498 137.5,137.498 75.938,0.002 137.5,-61.559 137.5,-137.498 0,-75.939 -61.562,-137.5 -137.499,-137.5 -75.941,-10e-4 -137.501,61.561 -137.501,137.5 z"
     fill="#de4815"
     id="path2" />
  <g
     fill="#ffffff"
     id="g4"
     transform="translate(-0.05598532,-0.76686999)">
    <path
       d="m 223.458,132.896 a 26.852,26.852 0 0 1 8.814,9.231 c 7.3,12.645 3.214,28.718 -9.072,36.389 a 80.095,80.095 0 0 0 7.514,17.591 c 6.752,11.695 14.153,19.887 24.848,26.594 l 13.779,-23.867 c -6.65,-4.357 -10.564,-9.12 -14.811,-16.477 -14.498,-25.11 -5.893,-57.219 19.216,-71.717 l -13.75,-23.816 c -18.317,10.578 -30.851,27.309 -36.538,46.072 z m 135.153,-31.26 -0.268,-0.151 -0.206,0.358 0.206,-0.358 -0.154,-0.087 c -0.416,0.271 -0.838,0.535 -1.272,0.786 -12.92,7.46 -29.426,3.036 -36.884,-9.884 -2.706,-4.687 -3.865,-9.459 -3.605,-14.487 -15.533,-3.266 -32.075,-1.926 -47.452,4.565 l 13.912,24.097 c 23.303,-8.06 49.788,1.235 62.575,23.383 a 52.248,52.248 0 0 1 7.025,25.224 h 27.456 c 0.012,-0.051 0.03,-0.099 0.049,-0.146 -0.178,-13.215 -3.636,-26.568 -10.714,-38.829 a 80.193,80.193 0 0 0 -10.668,-14.471 z m -80.72,102.39 -13.669,23.676 c 18.499,9.503 39.571,11.171 60.042,4.633 0.303,-9.007 5.108,-17.658 13.491,-22.498 7.328,-4.23 15.811,-4.639 23.141,-1.841 10.42,-12.229 16.797,-27.245 18.582,-42.915 h -27.759 c -2.576,14.799 -11.444,28.394 -25.472,36.492 -15.677,9.052 -33.131,9.629 -48.258,2.284"
       id="path3" />
    <path
       d="m 341.335,216.098 c 9.807,-5.661 22.335,-2.306 27.996,7.5 5.66,9.808 2.307,22.337 -7.502,27.996 -9.806,5.661 -22.335,2.308 -27.994,-7.501 -5.663,-9.807 -2.306,-22.335 7.5,-27.995 z M 334.737,58.351 c 9.807,-5.66 22.334,-2.305 27.995,7.499 5.659,9.809 2.307,22.338 -7.501,27.996 -9.807,5.662 -22.335,2.309 -27.996,-7.5 -5.661,-9.804 -2.306,-22.334 7.502,-27.995 z m -137.743,79.731 c 9.808,-5.661 22.336,-2.306 27.997,7.499 5.659,9.809 2.306,22.338 -7.502,27.996 -9.805,5.662 -22.334,2.309 -27.994,-7.5 -5.664,-9.806 -2.307,-22.336 7.499,-27.995 z"
       id="path4" />
  </g>
</svg>

